<svg width="123" height="123" viewBox="0 0 123 123" fill="none" xmlns="http://www.w3.org/2000/svg">
<g clip-path="url(#clip0_234_1199)">
<path d="M123 0H0V123H123V0Z" fill="white"/>
<path d="M4.2794 1.84473H1.84448V4.27965H4.2794V1.84473Z" fill="black"/>
<path d="M6.71432 1.84473H4.2794V4.27965H6.71432V1.84473Z" fill="black"/>
<path d="M9.14925 1.84473H6.71432V4.27965H9.14925V1.84473Z" fill="black"/>
<path d="M11.5842 1.84473H9.14925V4.27965H11.5842V1.84473Z" fill="black"/>
<path d="M14.0191 1.84473H11.5842V4.27965H14.0191V1.84473Z" fill="black"/>
<path d="M16.454 1.84473H14.0191V4.27965H16.454V1.84473Z" fill="black"/>
<path d="M18.8889 1.84473H16.454V4.27965H18.8889V1.84473Z" fill="black"/>
<path d="M28.6286 1.84473H26.1937V4.27965H28.6286V1.84473Z" fill="black"/>
<path d="M33.4985 1.84473H31.0635V4.27965H33.4985V1.84473Z" fill="black"/>
<path d="M35.9334 1.84473H33.4985V4.27965H35.9334V1.84473Z" fill="black"/>
<path d="M38.3683 1.84473H35.9334V4.27965H38.3683V1.84473Z" fill="black"/>
<path d="M43.2381 1.84473H40.8032V4.27965H43.2381V1.84473Z" fill="black"/>
<path d="M52.9778 1.84473H50.5429V4.27965H52.9778V1.84473Z" fill="black"/>
<path d="M55.4128 1.84473H52.9778V4.27965H55.4128V1.84473Z" fill="black"/>
<path d="M62.7175 1.84473H60.2826V4.27965H62.7175V1.84473Z" fill="black"/>
<path d="M67.5874 1.84473H65.1524V4.27965H67.5874V1.84473Z" fill="black"/>
<path d="M74.8921 1.84473H72.4572V4.27965H74.8921V1.84473Z" fill="black"/>
<path d="M84.6318 1.84473H82.1969V4.27965H84.6318V1.84473Z" fill="black"/>
<path d="M91.9366 1.84473H89.5016V4.27965H91.9366V1.84473Z" fill="black"/>
<path d="M101.676 1.84473H99.2413V4.27965H101.676V1.84473Z" fill="black"/>
<path d="M106.546 1.84473H104.111V4.27965H106.546V1.84473Z" fill="black"/>
<path d="M108.981 1.84473H106.546V4.27965H108.981V1.84473Z" fill="black"/>
<path d="M111.416 1.84473H108.981V4.27965H111.416V1.84473Z" fill="black"/>
<path d="M113.851 1.84473H111.416V4.27965H113.851V1.84473Z" fill="black"/>
<path d="M116.286 1.84473H113.851V4.27965H116.286V1.84473Z" fill="black"/>
<path d="M118.721 1.84473H116.286V4.27965H118.721V1.84473Z" fill="black"/>
<path d="M121.156 1.84473H118.721V4.27965H121.156V1.84473Z" fill="black"/>
<path d="M4.2794 4.27965H1.84448V6.71457H4.2794V4.27965Z" fill="black"/>
<path d="M18.8889 4.27965H16.454V6.71457H18.8889V4.27965Z" fill="black"/>
<path d="M23.7588 4.27965H21.3239V6.71457H23.7588V4.27965Z" fill="black"/>
<path d="M31.0635 4.27965H28.6286V6.71457H31.0635V4.27965Z" fill="black"/>
<path d="M33.4985 4.27965H31.0635V6.71457H33.4985V4.27965Z" fill="black"/>
<path d="M35.9334 4.27965H33.4985V6.71457H35.9334V4.27965Z" fill="black"/>
<path d="M38.3683 4.27965H35.9334V6.71457H38.3683V4.27965Z" fill="black"/>
<path d="M40.8032 4.27965H38.3683V6.71457H40.8032V4.27965Z" fill="black"/>
<path d="M43.2381 4.27965H40.8032V6.71457H43.2381V4.27965Z" fill="black"/>
<path d="M50.5429 4.27965H48.108V6.71457H50.5429V4.27965Z" fill="black"/>
<path d="M57.8477 4.27965H55.4128V6.71457H57.8477V4.27965Z" fill="black"/>
<path d="M65.1524 4.27965H62.7175V6.71457H65.1524V4.27965Z" fill="black"/>
<path d="M67.5874 4.27965H65.1524V6.71457H67.5874V4.27965Z" fill="black"/>
<path d="M84.6318 4.27965H82.1969V6.71457H84.6318V4.27965Z" fill="black"/>
<path d="M87.0667 4.27965H84.6318V6.71457H87.0667V4.27965Z" fill="black"/>
<path d="M89.5016 4.27965H87.0667V6.71457H89.5016L89.5016 4.27965Z" fill="black"/>
<path d="M94.3715 4.27965H91.9366V6.71457H94.3715V4.27965Z" fill="black"/>
<path d="M96.8064 4.27965H94.3715V6.71457H96.8064V4.27965Z" fill="black"/>
<path d="M99.2413 4.27965H96.8064V6.71457H99.2413L99.2413 4.27965Z" fill="black"/>
<path d="M101.676 4.27965H99.2413L99.2413 6.71457H101.676V4.27965Z" fill="black"/>
<path d="M106.546 4.27965H104.111V6.71457H106.546V4.27965Z" fill="black"/>
<path d="M121.156 4.27965H118.721L118.721 6.71457H121.156V4.27965Z" fill="black"/>
<path d="M4.2794 6.71457H1.84448V9.14949H4.2794V6.71457Z" fill="black"/>
<path d="M9.14925 6.71457H6.71432V9.14949H9.14925V6.71457Z" fill="black"/>
<path d="M11.5842 6.71457H9.14925V9.14949H11.5842V6.71457Z" fill="black"/>
<path d="M14.0191 6.71457H11.5842V9.14949H14.0191V6.71457Z" fill="black"/>
<path d="M18.8889 6.71457H16.454V9.14949H18.8889V6.71457Z" fill="black"/>
<path d="M26.1937 6.71457H23.7588V9.14949H26.1937V6.71457Z" fill="black"/>
<path d="M31.0635 6.71457H28.6286V9.14949H31.0635V6.71457Z" fill="black"/>
<path d="M38.3683 6.71457H35.9334V9.14949H38.3683V6.71457Z" fill="black"/>
<path d="M50.5429 6.71457H48.108V9.14949H50.5429V6.71457Z" fill="black"/>
<path d="M60.2826 6.71457H57.8477V9.14949H60.2826V6.71457Z" fill="black"/>
<path d="M65.1524 6.71457H62.7175V9.14949H65.1524V6.71457Z" fill="black"/>
<path d="M72.4572 6.71457H70.0223V9.14949H72.4572V6.71457Z" fill="black"/>
<path d="M74.8921 6.71457H72.4572V9.14949H74.8921V6.71457Z" fill="black"/>
<path d="M77.327 6.71457H74.8921V9.14949H77.327V6.71457Z" fill="black"/>
<path d="M82.1969 6.71457H79.762V9.14949H82.1969V6.71457Z" fill="black"/>
<path d="M84.6318 6.71457H82.1969V9.14949H84.6318V6.71457Z" fill="black"/>
<path d="M89.5016 6.71457H87.0667L87.0667 9.14949H89.5016V6.71457Z" fill="black"/>
<path d="M99.2413 6.71457H96.8064L96.8064 9.14949H99.2413V6.71457Z" fill="black"/>
<path d="M101.676 6.71457H99.2413V9.14949H101.676V6.71457Z" fill="black"/>
<path d="M106.546 6.71457H104.111V9.14949H106.546V6.71457Z" fill="black"/>
<path d="M111.416 6.71457H108.981V9.14949H111.416V6.71457Z" fill="black"/>
<path d="M113.851 6.71457H111.416V9.14949H113.851V6.71457Z" fill="black"/>
<path d="M116.286 6.71457H113.851V9.14949H116.286V6.71457Z" fill="black"/>
<path d="M121.156 6.71457H118.721V9.14949H121.156V6.71457Z" fill="black"/>
<path d="M4.2794 9.14949H1.84448V11.5844H4.2794V9.14949Z" fill="black"/>
<path d="M9.14925 9.14949H6.71432V11.5844H9.14925V9.14949Z" fill="black"/>
<path d="M11.5842 9.14949H9.14925V11.5844H11.5842V9.14949Z" fill="black"/>
<path d="M14.0191 9.14949H11.5842V11.5844H14.0191V9.14949Z" fill="black"/>
<path d="M18.8889 9.14949H16.454V11.5844H18.8889V9.14949Z" fill="black"/>
<path d="M23.7588 9.14949H21.3239V11.5844H23.7588V9.14949Z" fill="black"/>
<path d="M28.6286 9.14949H26.1937V11.5844H28.6286V9.14949Z" fill="black"/>
<path d="M31.0635 9.14949H28.6286V11.5844H31.0635V9.14949Z" fill="black"/>
<path d="M43.2381 9.14949H40.8032V11.5844H43.2381V9.14949Z" fill="black"/>
<path d="M45.6731 9.14949H43.2381V11.5844H45.6731V9.14949Z" fill="black"/>
<path d="M52.9778 9.14949H50.5429V11.5844H52.9778V9.14949Z" fill="black"/>
<path d="M57.8477 9.14949H55.4128V11.5844H57.8477V9.14949Z" fill="black"/>
<path d="M60.2826 9.14949H57.8477V11.5844H60.2826V9.14949Z" fill="black"/>
<path d="M62.7175 9.14949H60.2826V11.5844H62.7175V9.14949Z" fill="black"/>
<path d="M65.1524 9.14949H62.7175V11.5844H65.1524V9.14949Z" fill="black"/>
<path d="M67.5874 9.14949H65.1524V11.5844H67.5874V9.14949Z" fill="black"/>
<path d="M70.0223 9.14949H67.5874V11.5844H70.0223L70.0223 9.14949Z" fill="black"/>
<path d="M72.4572 9.14949H70.0223L70.0223 11.5844H72.4572V9.14949Z" fill="black"/>
<path d="M74.8921 9.14949H72.4572V11.5844H74.8921V9.14949Z" fill="black"/>
<path d="M79.762 9.14949H77.327L77.327 11.5844H79.762L79.762 9.14949Z" fill="black"/>
<path d="M82.1969 9.14949H79.762L79.762 11.5844H82.1969V9.14949Z" fill="black"/>
<path d="M84.6318 9.14949H82.1969V11.5844H84.6318V9.14949Z" fill="black"/>
<path d="M87.0667 9.14949H84.6318V11.5844H87.0667L87.0667 9.14949Z" fill="black"/>
<path d="M89.5016 9.14949H87.0667L87.0667 11.5844H89.5016V9.14949Z" fill="black"/>
<path d="M91.9366 9.14949H89.5016V11.5844H91.9366V9.14949Z" fill="black"/>
<path d="M94.3715 9.14949H91.9366V11.5844H94.3715V9.14949Z" fill="black"/>
<path d="M99.2413 9.14949H96.8064V11.5844H99.2413V9.14949Z" fill="black"/>
<path d="M106.546 9.14949H104.111V11.5844H106.546V9.14949Z" fill="black"/>
<path d="M111.416 9.14949H108.981V11.5844H111.416V9.14949Z" fill="black"/>
<path d="M113.851 9.14949H111.416V11.5844H113.851V9.14949Z" fill="black"/>
<path d="M116.286 9.14949H113.851V11.5844H116.286V9.14949Z" fill="black"/>
<path d="M121.156 9.14949H118.721V11.5844H121.156V9.14949Z" fill="black"/>
<path d="M4.2794 11.5844H1.84448V14.0193H4.2794V11.5844Z" fill="black"/>
<path d="M9.14925 11.5844H6.71432V14.0193H9.14925V11.5844Z" fill="black"/>
<path d="M11.5842 11.5844H9.14925V14.0193H11.5842V11.5844Z" fill="black"/>
<path d="M14.0191 11.5844H11.5842V14.0193H14.0191V11.5844Z" fill="black"/>
<path d="M18.8889 11.5844H16.454V14.0193H18.8889V11.5844Z" fill="black"/>
<path d="M23.7588 11.5844H21.3239V14.0193H23.7588V11.5844Z" fill="black"/>
<path d="M26.1937 11.5844H23.7588V14.0193H26.1937V11.5844Z" fill="black"/>
<path d="M28.6286 11.5844H26.1937V14.0193H28.6286V11.5844Z" fill="black"/>
<path d="M31.0635 11.5844H28.6286V14.0193H31.0635V11.5844Z" fill="black"/>
<path d="M35.9334 11.5844H33.4985V14.0193H35.9334V11.5844Z" fill="black"/>
<path d="M38.3683 11.5844H35.9334V14.0193H38.3683V11.5844Z" fill="black"/>
<path d="M40.8032 11.5844H38.3683V14.0193H40.8032V11.5844Z" fill="black"/>
<path d="M48.108 11.5844H45.6731V14.0193H48.108V11.5844Z" fill="black"/>
<path d="M50.5429 11.5844H48.108V14.0193H50.5429V11.5844Z" fill="black"/>
<path d="M52.9778 11.5844H50.5429V14.0193H52.9778V11.5844Z" fill="black"/>
<path d="M57.8477 11.5844H55.4128V14.0193H57.8477V11.5844Z" fill="black"/>
<path d="M60.2826 11.5844H57.8477V14.0193H60.2826V11.5844Z" fill="black"/>
<path d="M62.7175 11.5844H60.2826V14.0193H62.7175V11.5844Z" fill="black"/>
<path d="M65.1524 11.5844H62.7175V14.0193H65.1524V11.5844Z" fill="black"/>
<path d="M67.5874 11.5844H65.1524V14.0193H67.5874V11.5844Z" fill="black"/>
<path d="M70.0223 11.5844H67.5874V14.0193H70.0223V11.5844Z" fill="black"/>
<path d="M72.4572 11.5844H70.0223V14.0193H72.4572V11.5844Z" fill="black"/>
<path d="M74.8921 11.5844H72.4572V14.0193H74.8921V11.5844Z" fill="black"/>
<path d="M82.1969 11.5844H79.762L79.762 14.0193H82.1969V11.5844Z" fill="black"/>
<path d="M84.6318 11.5844H82.1969V14.0193H84.6318V11.5844Z" fill="black"/>
<path d="M87.0667 11.5844H84.6318V14.0193H87.0667V11.5844Z" fill="black"/>
<path d="M89.5016 11.5844H87.0667V14.0193H89.5016V11.5844Z" fill="black"/>
<path d="M91.9366 11.5844H89.5016V14.0193H91.9366V11.5844Z" fill="black"/>
<path d="M106.546 11.5844H104.111V14.0193H106.546V11.5844Z" fill="black"/>
<path d="M111.416 11.5844H108.981V14.0193H111.416V11.5844Z" fill="black"/>
<path d="M113.851 11.5844H111.416V14.0193H113.851V11.5844Z" fill="black"/>
<path d="M116.286 11.5844H113.851V14.0193H116.286V11.5844Z" fill="black"/>
<path d="M121.156 11.5844H118.721V14.0193H121.156V11.5844Z" fill="black"/>
<path d="M4.2794 14.0193H1.84448V16.4543H4.2794V14.0193Z" fill="black"/>
<path d="M18.8889 14.0193H16.454V16.4543H18.8889V14.0193Z" fill="black"/>
<path d="M23.7588 14.0193H21.3239V16.4543H23.7588V14.0193Z" fill="black"/>
<path d="M26.1937 14.0193H23.7588V16.4543H26.1937V14.0193Z" fill="black"/>
<path d="M31.0635 14.0193H28.6286V16.4543H31.0635V14.0193Z" fill="black"/>
<path d="M40.8032 14.0193H38.3683V16.4543H40.8032V14.0193Z" fill="black"/>
<path d="M45.6731 14.0193H43.2381V16.4543H45.6731V14.0193Z" fill="black"/>
<path d="M52.9778 14.0193H50.5429V16.4543H52.9778V14.0193Z" fill="black"/>
<path d="M55.4128 14.0193H52.9778V16.4543H55.4128V14.0193Z" fill="black"/>
<path d="M57.8477 14.0193H55.4128V16.4543H57.8477V14.0193Z" fill="black"/>
<path d="M67.5874 14.0193H65.1524V16.4543H67.5874V14.0193Z" fill="black"/>
<path d="M72.4572 14.0193H70.0223L70.0223 16.4543H72.4572V14.0193Z" fill="black"/>
<path d="M82.1969 14.0193H79.762V16.4543H82.1969V14.0193Z" fill="black"/>
<path d="M84.6318 14.0193H82.1969V16.4543H84.6318V14.0193Z" fill="black"/>
<path d="M87.0667 14.0193H84.6318V16.4543H87.0667V14.0193Z" fill="black"/>
<path d="M89.5016 14.0193H87.0667V16.4543H89.5016V14.0193Z" fill="black"/>
<path d="M91.9366 14.0193H89.5016V16.4543H91.9366V14.0193Z" fill="black"/>
<path d="M96.8064 14.0193H94.3715V16.4543H96.8064V14.0193Z" fill="black"/>
<path d="M106.546 14.0193H104.111V16.4543H106.546V14.0193Z" fill="black"/>
<path d="M121.156 14.0193H118.721V16.4543H121.156V14.0193Z" fill="black"/>
<path d="M4.2794 16.4543H1.84448V18.8892H4.2794V16.4543Z" fill="black"/>
<path d="M6.71432 16.4543H4.2794V18.8892H6.71432V16.4543Z" fill="black"/>
<path d="M9.14925 16.4543H6.71432V18.8892H9.14925V16.4543Z" fill="black"/>
<path d="M11.5842 16.4543H9.14925V18.8892H11.5842V16.4543Z" fill="black"/>
<path d="M14.0191 16.4543H11.5842V18.8892H14.0191V16.4543Z" fill="black"/>
<path d="M16.454 16.4543H14.0191V18.8892H16.454V16.4543Z" fill="black"/>
<path d="M18.8889 16.4543H16.454V18.8892H18.8889V16.4543Z" fill="black"/>
<path d="M23.7588 16.4543H21.3239V18.8892H23.7588V16.4543Z" fill="black"/>
<path d="M28.6286 16.4543H26.1937V18.8892H28.6286V16.4543Z" fill="black"/>
<path d="M33.4985 16.4543H31.0635V18.8892H33.4985V16.4543Z" fill="black"/>
<path d="M38.3683 16.4543H35.9334V18.8892H38.3683V16.4543Z" fill="black"/>
<path d="M43.2381 16.4543H40.8032V18.8892H43.2381V16.4543Z" fill="black"/>
<path d="M48.108 16.4543H45.6731V18.8892H48.108V16.4543Z" fill="black"/>
<path d="M52.9778 16.4543H50.5429V18.8892H52.9778V16.4543Z" fill="black"/>
<path d="M57.8477 16.4543H55.4128V18.8892H57.8477V16.4543Z" fill="black"/>
<path d="M62.7175 16.4543H60.2826V18.8892H62.7175V16.4543Z" fill="black"/>
<path d="M67.5874 16.4543H65.1524V18.8892H67.5874V16.4543Z" fill="black"/>
<path d="M72.4572 16.4543H70.0223V18.8892H72.4572V16.4543Z" fill="black"/>
<path d="M77.327 16.4543H74.8921V18.8892H77.327V16.4543Z" fill="black"/>
<path d="M82.1969 16.4543H79.762V18.8892H82.1969V16.4543Z" fill="black"/>
<path d="M87.0667 16.4543H84.6318L84.6318 18.8892H87.0667V16.4543Z" fill="black"/>
<path d="M91.9366 16.4543H89.5016L89.5016 18.8892H91.9366V16.4543Z" fill="black"/>
<path d="M96.8064 16.4543H94.3715V18.8892H96.8064V16.4543Z" fill="black"/>
<path d="M101.676 16.4543H99.2413V18.8892H101.676V16.4543Z" fill="black"/>
<path d="M106.546 16.4543H104.111V18.8892H106.546V16.4543Z" fill="black"/>
<path d="M108.981 16.4543H106.546V18.8892H108.981V16.4543Z" fill="black"/>
<path d="M111.416 16.4543H108.981V18.8892H111.416V16.4543Z" fill="black"/>
<path d="M113.851 16.4543H111.416V18.8892H113.851V16.4543Z" fill="black"/>
<path d="M116.286 16.4543H113.851V18.8892H116.286V16.4543Z" fill="black"/>
<path d="M118.721 16.4543H116.286V18.8892H118.721L118.721 16.4543Z" fill="black"/>
<path d="M121.156 16.4543H118.721L118.721 18.8892H121.156V16.4543Z" fill="black"/>
<path d="M28.6286 18.8892H26.1937V21.3241H28.6286V18.8892Z" fill="black"/>
<path d="M40.8032 18.8892H38.3683V21.3241H40.8032V18.8892Z" fill="black"/>
<path d="M48.108 18.8892H45.6731V21.3241H48.108V18.8892Z" fill="black"/>
<path d="M55.4128 18.8892H52.9778V21.3241H55.4128V18.8892Z" fill="black"/>
<path d="M57.8477 18.8892H55.4128V21.3241H57.8477V18.8892Z" fill="black"/>
<path d="M67.5874 18.8892H65.1524V21.3241H67.5874V18.8892Z" fill="black"/>
<path d="M72.4572 18.8892H70.0223V21.3241H72.4572V18.8892Z" fill="black"/>
<path d="M74.8921 18.8892H72.4572V21.3241H74.8921L74.8921 18.8892Z" fill="black"/>
<path d="M79.762 18.8892H77.327L77.327 21.3241H79.762L79.762 18.8892Z" fill="black"/>
<path d="M82.1969 18.8892H79.762L79.762 21.3241H82.1969V18.8892Z" fill="black"/>
<path d="M91.9366 18.8892H89.5016V21.3241H91.9366V18.8892Z" fill="black"/>
<path d="M99.2413 18.8892H96.8064L96.8064 21.3241H99.2413L99.2413 18.8892Z" fill="black"/>
<path d="M101.676 18.8892H99.2413L99.2413 21.3241H101.676V18.8892Z" fill="black"/>
<path d="M6.71432 21.3241H4.2794V23.759H6.71432V21.3241Z" fill="black"/>
<path d="M11.5842 21.3241H9.14925V23.759H11.5842V21.3241Z" fill="black"/>
<path d="M14.0191 21.3241H11.5842V23.759H14.0191V21.3241Z" fill="black"/>
<path d="M18.8889 21.3241H16.454V23.759H18.8889V21.3241Z" fill="black"/>
<path d="M21.3239 21.3241H18.8889V23.759H21.3239V21.3241Z" fill="black"/>
<path d="M23.7588 21.3241H21.3239V23.759H23.7588V21.3241Z" fill="black"/>
<path d="M26.1937 21.3241H23.7588V23.759H26.1937V21.3241Z" fill="black"/>
<path d="M28.6286 21.3241H26.1937V23.759H28.6286V21.3241Z" fill="black"/>
<path d="M35.9334 21.3241H33.4985V23.759H35.9334V21.3241Z" fill="black"/>
<path d="M40.8032 21.3241H38.3683V23.759H40.8032V21.3241Z" fill="black"/>
<path d="M43.2381 21.3241H40.8032V23.759H43.2381V21.3241Z" fill="black"/>
<path d="M50.5429 21.3241H48.108V23.759H50.5429V21.3241Z" fill="black"/>
<path d="M52.9778 21.3241H50.5429V23.759H52.9778V21.3241Z" fill="black"/>
<path d="M55.4128 21.3241H52.9778V23.759H55.4128V21.3241Z" fill="black"/>
<path d="M57.8477 21.3241H55.4128V23.759H57.8477V21.3241Z" fill="black"/>
<path d="M60.2826 21.3241H57.8477V23.759H60.2826V21.3241Z" fill="black"/>
<path d="M62.7175 21.3241H60.2826V23.759H62.7175V21.3241Z" fill="black"/>
<path d="M65.1524 21.3241H62.7175V23.759H65.1524V21.3241Z" fill="black"/>
<path d="M67.5874 21.3241H65.1524V23.759H67.5874V21.3241Z" fill="black"/>
<path d="M72.4572 21.3241H70.0223V23.759H72.4572V21.3241Z" fill="black"/>
<path d="M74.8921 21.3241H72.4572V23.759H74.8921V21.3241Z" fill="black"/>
<path d="M77.327 21.3241H74.8921V23.759H77.327L77.327 21.3241Z" fill="black"/>
<path d="M79.762 21.3241H77.327L77.327 23.759H79.762V21.3241Z" fill="black"/>
<path d="M82.1969 21.3241H79.762V23.759H82.1969V21.3241Z" fill="black"/>
<path d="M87.0667 21.3241H84.6318V23.759H87.0667V21.3241Z" fill="black"/>
<path d="M96.8064 21.3241H94.3715V23.759H96.8064L96.8064 21.3241Z" fill="black"/>
<path d="M104.111 21.3241H101.676V23.759H104.111V21.3241Z" fill="black"/>
<path d="M108.981 21.3241H106.546V23.759H108.981V21.3241Z" fill="black"/>
<path d="M111.416 21.3241H108.981V23.759H111.416V21.3241Z" fill="black"/>
<path d="M113.851 21.3241H111.416V23.759H113.851V21.3241Z" fill="black"/>
<path d="M118.721 21.3241H116.286V23.759H118.721V21.3241Z" fill="black"/>
<path d="M4.2794 23.759H1.84448V26.1939H4.2794V23.759Z" fill="black"/>
<path d="M6.71432 23.759H4.2794V26.1939H6.71432V23.759Z" fill="black"/>
<path d="M9.14925 23.759H6.71432V26.1939H9.14925V23.759Z" fill="black"/>
<path d="M14.0191 23.759H11.5842V26.1939H14.0191V23.759Z" fill="black"/>
<path d="M23.7588 23.759H21.3239V26.1939H23.7588V23.759Z" fill="black"/>
<path d="M26.1937 23.759H23.7588V26.1939H26.1937V23.759Z" fill="black"/>
<path d="M28.6286 23.759H26.1937V26.1939H28.6286V23.759Z" fill="black"/>
<path d="M38.3683 23.759H35.9334V26.1939H38.3683V23.759Z" fill="black"/>
<path d="M40.8032 23.759H38.3683V26.1939H40.8032V23.759Z" fill="black"/>
<path d="M45.6731 23.759H43.2381V26.1939H45.6731V23.759Z" fill="black"/>
<path d="M48.108 23.759H45.6731V26.1939H48.108V23.759Z" fill="black"/>
<path d="M50.5429 23.759H48.108V26.1939H50.5429V23.759Z" fill="black"/>
<path d="M60.2826 23.759H57.8477V26.1939H60.2826V23.759Z" fill="black"/>
<path d="M62.7175 23.759H60.2826V26.1939H62.7175V23.759Z" fill="black"/>
<path d="M65.1524 23.759H62.7175V26.1939H65.1524V23.759Z" fill="black"/>
<path d="M70.0223 23.759H67.5874V26.1939H70.0223L70.0223 23.759Z" fill="black"/>
<path d="M72.4572 23.759H70.0223L70.0223 26.1939H72.4572V23.759Z" fill="black"/>
<path d="M74.8921 23.759H72.4572V26.1939H74.8921V23.759Z" fill="black"/>
<path d="M77.327 23.759H74.8921V26.1939H77.327V23.759Z" fill="black"/>
<path d="M79.762 23.759H77.327V26.1939H79.762V23.759Z" fill="black"/>
<path d="M87.0667 23.759H84.6318V26.1939H87.0667V23.759Z" fill="black"/>
<path d="M89.5016 23.759H87.0667V26.1939H89.5016V23.759Z" fill="black"/>
<path d="M99.2413 23.759H96.8064L96.8064 26.1939H99.2413V23.759Z" fill="black"/>
<path d="M111.416 23.759H108.981L108.981 26.1939H111.416V23.759Z" fill="black"/>
<path d="M118.721 23.759H116.286V26.1939H118.721V23.759Z" fill="black"/>
<path d="M121.156 23.759H118.721V26.1939H121.156V23.759Z" fill="black"/>
<path d="M4.2794 26.1939H1.84448V28.6289H4.2794V26.1939Z" fill="black"/>
<path d="M6.71432 26.1939H4.2794V28.6289H6.71432V26.1939Z" fill="black"/>
<path d="M9.14925 26.1939H6.71432V28.6289H9.14925V26.1939Z" fill="black"/>
<path d="M14.0191 26.1939H11.5842V28.6289H14.0191V26.1939Z" fill="black"/>
<path d="M18.8889 26.1939H16.454V28.6289H18.8889V26.1939Z" fill="black"/>
<path d="M28.6286 26.1939H26.1937V28.6289H28.6286V26.1939Z" fill="black"/>
<path d="M31.0635 26.1939H28.6286V28.6289H31.0635V26.1939Z" fill="black"/>
<path d="M38.3683 26.1939H35.9334V28.6289H38.3683V26.1939Z" fill="black"/>
<path d="M40.8032 26.1939H38.3683V28.6289H40.8032V26.1939Z" fill="black"/>
<path d="M43.2381 26.1939H40.8032V28.6289H43.2381V26.1939Z" fill="black"/>
<path d="M45.6731 26.1939H43.2381V28.6289H45.6731V26.1939Z" fill="black"/>
<path d="M60.2826 26.1939H57.8477V28.6289H60.2826V26.1939Z" fill="black"/>
<path d="M62.7175 26.1939H60.2826V28.6289H62.7175V26.1939Z" fill="black"/>
<path d="M67.5874 26.1939H65.1524V28.6289H67.5874V26.1939Z" fill="black"/>
<path d="M70.0223 26.1939H67.5874V28.6289H70.0223V26.1939Z" fill="black"/>
<path d="M91.9366 26.1939H89.5016L89.5016 28.6289H91.9366V26.1939Z" fill="black"/>
<path d="M104.111 26.1939H101.676V28.6289H104.111V26.1939Z" fill="black"/>
<path d="M106.546 26.1939H104.111V28.6289H106.546V26.1939Z" fill="black"/>
<path d="M111.416 26.1939H108.981V28.6289H111.416V26.1939Z" fill="black"/>
<path d="M118.721 26.1939H116.286V28.6289H118.721V26.1939Z" fill="black"/>
<path d="M121.156 26.1939H118.721V28.6289H121.156V26.1939Z" fill="black"/>
<path d="M4.2794 28.6289H1.84448V31.0638H4.2794V28.6289Z" fill="black"/>
<path d="M11.5842 28.6289H9.14925V31.0638H11.5842V28.6289Z" fill="black"/>
<path d="M23.7588 28.6289H21.3239V31.0638H23.7588V28.6289Z" fill="black"/>
<path d="M26.1937 28.6289H23.7588V31.0638H26.1937V28.6289Z" fill="black"/>
<path d="M28.6286 28.6289H26.1937V31.0638H28.6286V28.6289Z" fill="black"/>
<path d="M31.0635 28.6289H28.6286V31.0638H31.0635V28.6289Z" fill="black"/>
<path d="M35.9334 28.6289H33.4985V31.0638H35.9334V28.6289Z" fill="black"/>
<path d="M43.2381 28.6289H40.8032V31.0638H43.2381V28.6289Z" fill="black"/>
<path d="M45.6731 28.6289H43.2381V31.0638H45.6731V28.6289Z" fill="black"/>
<path d="M48.108 28.6289H45.6731V31.0638H48.108V28.6289Z" fill="black"/>
<path d="M50.5429 28.6289H48.108V31.0638H50.5429V28.6289Z" fill="black"/>
<path d="M52.9778 28.6289H50.5429V31.0638H52.9778V28.6289Z" fill="black"/>
<path d="M55.4128 28.6289H52.9778V31.0638H55.4128V28.6289Z" fill="black"/>
<path d="M57.8477 28.6289H55.4128V31.0638H57.8477V28.6289Z" fill="black"/>
<path d="M67.5874 28.6289H65.1524V31.0638H67.5874V28.6289Z" fill="black"/>
<path d="M70.0223 28.6289H67.5874V31.0638H70.0223V28.6289Z" fill="black"/>
<path d="M79.762 28.6289H77.327V31.0638H79.762V28.6289Z" fill="black"/>
<path d="M82.1969 28.6289H79.762V31.0638H82.1969V28.6289Z" fill="black"/>
<path d="M84.6318 28.6289H82.1969V31.0638H84.6318V28.6289Z" fill="black"/>
<path d="M87.0667 28.6289H84.6318V31.0638H87.0667V28.6289Z" fill="black"/>
<path d="M91.9366 28.6289H89.5016V31.0638H91.9366V28.6289Z" fill="black"/>
<path d="M96.8064 28.6289H94.3715V31.0638H96.8064V28.6289Z" fill="black"/>
<path d="M101.676 28.6289H99.2413V31.0638H101.676V28.6289Z" fill="black"/>
<path d="M104.111 28.6289H101.676V31.0638H104.111V28.6289Z" fill="black"/>
<path d="M106.546 28.6289H104.111V31.0638H106.546V28.6289Z" fill="black"/>
<path d="M113.851 28.6289H111.416V31.0638H113.851V28.6289Z" fill="black"/>
<path d="M116.286 28.6289H113.851V31.0638H116.286L116.286 28.6289Z" fill="black"/>
<path d="M121.156 28.6289H118.721L118.721 31.0638H121.156V28.6289Z" fill="black"/>
<path d="M4.2794 31.0638H1.84448V33.4987H4.2794V31.0638Z" fill="black"/>
<path d="M9.14925 31.0638H6.71432V33.4987H9.14925V31.0638Z" fill="black"/>
<path d="M14.0191 31.0638H11.5842V33.4987H14.0191V31.0638Z" fill="black"/>
<path d="M18.8889 31.0638H16.454V33.4987H18.8889V31.0638Z" fill="black"/>
<path d="M21.3239 31.0638H18.8889V33.4987H21.3239V31.0638Z" fill="black"/>
<path d="M23.7588 31.0638H21.3239V33.4987H23.7588V31.0638Z" fill="black"/>
<path d="M26.1937 31.0638H23.7588V33.4987H26.1937V31.0638Z" fill="black"/>
<path d="M28.6286 31.0638H26.1937V33.4987H28.6286V31.0638Z" fill="black"/>
<path d="M31.0635 31.0638H28.6286V33.4987H31.0635V31.0638Z" fill="black"/>
<path d="M33.4985 31.0638H31.0635V33.4987H33.4985V31.0638Z" fill="black"/>
<path d="M38.3683 31.0638H35.9334V33.4987H38.3683V31.0638Z" fill="black"/>
<path d="M40.8032 31.0638H38.3683V33.4987H40.8032V31.0638Z" fill="black"/>
<path d="M43.2381 31.0638H40.8032V33.4987H43.2381V31.0638Z" fill="black"/>
<path d="M50.5429 31.0638H48.108V33.4987H50.5429V31.0638Z" fill="black"/>
<path d="M55.4128 31.0638H52.9778V33.4987H55.4128V31.0638Z" fill="black"/>
<path d="M57.8477 31.0638H55.4128V33.4987H57.8477V31.0638Z" fill="black"/>
<path d="M60.2826 31.0638H57.8477V33.4987H60.2826V31.0638Z" fill="black"/>
<path d="M62.7175 31.0638H60.2826V33.4987H62.7175V31.0638Z" fill="black"/>
<path d="M65.1524 31.0638H62.7175V33.4987H65.1524V31.0638Z" fill="black"/>
<path d="M67.5874 31.0638H65.1524V33.4987H67.5874V31.0638Z" fill="black"/>
<path d="M70.0223 31.0638H67.5874V33.4987H70.0223V31.0638Z" fill="black"/>
<path d="M74.8921 31.0638H72.4572V33.4987H74.8921V31.0638Z" fill="black"/>
<path d="M87.0667 31.0638H84.6318L84.6318 33.4987H87.0667V31.0638Z" fill="black"/>
<path d="M89.5016 31.0638H87.0667V33.4987H89.5016L89.5016 31.0638Z" fill="black"/>
<path d="M91.9366 31.0638H89.5016L89.5016 33.4987H91.9366V31.0638Z" fill="black"/>
<path d="M96.8064 31.0638H94.3715V33.4987H96.8064V31.0638Z" fill="black"/>
<path d="M101.676 31.0638H99.2413V33.4987H101.676V31.0638Z" fill="black"/>
<path d="M106.546 31.0638H104.111L104.111 33.4987H106.546V31.0638Z" fill="black"/>
<path d="M108.981 31.0638H106.546V33.4987H108.981V31.0638Z" fill="black"/>
<path d="M113.851 31.0638H111.416V33.4987H113.851V31.0638Z" fill="black"/>
<path d="M118.721 31.0638H116.286L116.286 33.4987H118.721L118.721 31.0638Z" fill="black"/>
<path d="M121.156 31.0638H118.721L118.721 33.4987H121.156V31.0638Z" fill="black"/>
<path d="M6.71432 33.4987H4.2794V35.9336H6.71432V33.4987Z" fill="black"/>
<path d="M9.14925 33.4987H6.71432V35.9336H9.14925V33.4987Z" fill="black"/>
<path d="M16.454 33.4987H14.0191V35.9336H16.454V33.4987Z" fill="black"/>
<path d="M33.4985 33.4987H31.0635V35.9336H33.4985V33.4987Z" fill="black"/>
<path d="M35.9334 33.4987H33.4985V35.9336H35.9334V33.4987Z" fill="black"/>
<path d="M38.3683 33.4987H35.9334V35.9336H38.3683V33.4987Z" fill="black"/>
<path d="M43.2381 33.4987H40.8032V35.9336H43.2381V33.4987Z" fill="black"/>
<path d="M48.108 33.4987H45.6731V35.9336H48.108V33.4987Z" fill="black"/>
<path d="M50.5429 33.4987H48.108V35.9336H50.5429V33.4987Z" fill="black"/>
<path d="M52.9778 33.4987H50.5429V35.9336H52.9778V33.4987Z" fill="black"/>
<path d="M60.2826 33.4987H57.8477V35.9336H60.2826V33.4987Z" fill="black"/>
<path d="M62.7175 33.4987H60.2826V35.9336H62.7175V33.4987Z" fill="black"/>
<path d="M67.5874 33.4987H65.1524V35.9336H67.5874V33.4987Z" fill="black"/>
<path d="M72.4572 33.4987H70.0223L70.0223 35.9336H72.4572V33.4987Z" fill="black"/>
<path d="M77.327 33.4987H74.8921L74.8921 35.9336H77.327V33.4987Z" fill="black"/>
<path d="M79.762 33.4987H77.327V35.9336H79.762V33.4987Z" fill="black"/>
<path d="M82.1969 33.4987H79.762V35.9336H82.1969V33.4987Z" fill="black"/>
<path d="M87.0667 33.4987H84.6318V35.9336H87.0667V33.4987Z" fill="black"/>
<path d="M101.676 33.4987H99.2413V35.9336H101.676V33.4987Z" fill="black"/>
<path d="M104.111 33.4987H101.676V35.9336H104.111L104.111 33.4987Z" fill="black"/>
<path d="M106.546 33.4987H104.111L104.111 35.9336H106.546V33.4987Z" fill="black"/>
<path d="M108.981 33.4987H106.546V35.9336H108.981V33.4987Z" fill="black"/>
<path d="M111.416 33.4987H108.981V35.9336H111.416V33.4987Z" fill="black"/>
<path d="M113.851 33.4987H111.416V35.9336H113.851V33.4987Z" fill="black"/>
<path d="M118.721 33.4987H116.286V35.9336H118.721V33.4987Z" fill="black"/>
<path d="M16.454 35.9336H14.0191V38.3685H16.454V35.9336Z" fill="black"/>
<path d="M18.8889 35.9336H16.454V38.3685H18.8889V35.9336Z" fill="black"/>
<path d="M21.3239 35.9336H18.8889V38.3685H21.3239V35.9336Z" fill="black"/>
<path d="M31.0635 35.9336H28.6286V38.3685H31.0635V35.9336Z" fill="black"/>
<path d="M35.9334 35.9336H33.4985V38.3685H35.9334V35.9336Z" fill="black"/>
<path d="M40.8032 35.9336H38.3683V38.3685H40.8032V35.9336Z" fill="black"/>
<path d="M48.108 35.9336H45.6731V38.3685H48.108V35.9336Z" fill="black"/>
<path d="M50.5429 35.9336H48.108V38.3685H50.5429V35.9336Z" fill="black"/>
<path d="M52.9778 35.9336H50.5429V38.3685H52.9778V35.9336Z" fill="black"/>
<path d="M62.7175 35.9336H60.2826V38.3685H62.7175V35.9336Z" fill="black"/>
<path d="M67.5874 35.9336H65.1524V38.3685H67.5874V35.9336Z" fill="black"/>
<path d="M72.4572 35.9336H70.0223V38.3685H72.4572V35.9336Z" fill="black"/>
<path d="M74.8921 35.9336H72.4572V38.3685H74.8921L74.8921 35.9336Z" fill="black"/>
<path d="M77.327 35.9336H74.8921L74.8921 38.3685H77.327V35.9336Z" fill="black"/>
<path d="M79.762 35.9336H77.327V38.3685H79.762V35.9336Z" fill="black"/>
<path d="M84.6318 35.9336H82.1969V38.3685H84.6318L84.6318 35.9336Z" fill="black"/>
<path d="M87.0667 35.9336H84.6318L84.6318 38.3685H87.0667V35.9336Z" fill="black"/>
<path d="M89.5016 35.9336H87.0667V38.3685H89.5016V35.9336Z" fill="black"/>
<path d="M91.9366 35.9336H89.5016V38.3685H91.9366V35.9336Z" fill="black"/>
<path d="M94.3715 35.9336H91.9366V38.3685H94.3715V35.9336Z" fill="black"/>
<path d="M96.8064 35.9336H94.3715V38.3685H96.8064V35.9336Z" fill="black"/>
<path d="M99.2413 35.9336H96.8064V38.3685H99.2413L99.2413 35.9336Z" fill="black"/>
<path d="M101.676 35.9336H99.2413L99.2413 38.3685H101.676V35.9336Z" fill="black"/>
<path d="M104.111 35.9336H101.676V38.3685H104.111V35.9336Z" fill="black"/>
<path d="M111.416 35.9336H108.981L108.981 38.3685H111.416V35.9336Z" fill="black"/>
<path d="M118.721 35.9336H116.286V38.3685H118.721V35.9336Z" fill="black"/>
<path d="M6.71432 38.3685H4.2794V40.8035H6.71432V38.3685Z" fill="black"/>
<path d="M11.5842 38.3685H9.14925V40.8035H11.5842V38.3685Z" fill="black"/>
<path d="M28.6286 38.3685H26.1937V40.8035H28.6286V38.3685Z" fill="black"/>
<path d="M33.4985 38.3685H31.0635V40.8035H33.4985V38.3685Z" fill="black"/>
<path d="M35.9334 38.3685H33.4985V40.8035H35.9334V38.3685Z" fill="black"/>
<path d="M45.6731 38.3685H43.2381V40.8035H45.6731V38.3685Z" fill="black"/>
<path d="M48.108 38.3685H45.6731V40.8035H48.108V38.3685Z" fill="black"/>
<path d="M50.5429 38.3685H48.108V40.8035H50.5429V38.3685Z" fill="black"/>
<path d="M55.4128 38.3685H52.9778V40.8035H55.4128V38.3685Z" fill="black"/>
<path d="M65.1524 38.3685H62.7175V40.8035H65.1524V38.3685Z" fill="black"/>
<path d="M72.4572 38.3685H70.0223V40.8035H72.4572V38.3685Z" fill="black"/>
<path d="M74.8921 38.3685H72.4572V40.8035H74.8921V38.3685Z" fill="black"/>
<path d="M79.762 38.3685H77.327L77.327 40.8035H79.762V38.3685Z" fill="black"/>
<path d="M84.6318 38.3685H82.1969V40.8035H84.6318V38.3685Z" fill="black"/>
<path d="M87.0667 38.3685H84.6318V40.8035H87.0667V38.3685Z" fill="black"/>
<path d="M89.5016 38.3685H87.0667V40.8035H89.5016V38.3685Z" fill="black"/>
<path d="M91.9366 38.3685H89.5016V40.8035H91.9366V38.3685Z" fill="black"/>
<path d="M94.3715 38.3685H91.9366V40.8035H94.3715V38.3685Z" fill="black"/>
<path d="M96.8064 38.3685H94.3715V40.8035H96.8064V38.3685Z" fill="black"/>
<path d="M99.2413 38.3685H96.8064V40.8035H99.2413V38.3685Z" fill="black"/>
<path d="M101.676 38.3685H99.2413V40.8035H101.676V38.3685Z" fill="black"/>
<path d="M104.111 38.3685H101.676V40.8035H104.111V38.3685Z" fill="black"/>
<path d="M108.981 38.3685H106.546V40.8035H108.981L108.981 38.3685Z" fill="black"/>
<path d="M111.416 38.3685H108.981L108.981 40.8035H111.416V38.3685Z" fill="black"/>
<path d="M113.851 38.3685H111.416V40.8035H113.851V38.3685Z" fill="black"/>
<path d="M116.286 38.3685H113.851V40.8035H116.286L116.286 38.3685Z" fill="black"/>
<path d="M9.14925 40.8035H6.71432V43.2384H9.14925V40.8035Z" fill="black"/>
<path d="M11.5842 40.8035H9.14925V43.2384H11.5842V40.8035Z" fill="black"/>
<path d="M14.0191 40.8035H11.5842V43.2384H14.0191V40.8035Z" fill="black"/>
<path d="M18.8889 40.8035H16.454V43.2384H18.8889V40.8035Z" fill="black"/>
<path d="M21.3239 40.8035H18.8889V43.2384H21.3239V40.8035Z" fill="black"/>
<path d="M23.7588 40.8035H21.3239V43.2384H23.7588V40.8035Z" fill="black"/>
<path d="M26.1937 40.8035H23.7588V43.2384H26.1937V40.8035Z" fill="black"/>
<path d="M28.6286 40.8035H26.1937V43.2384H28.6286V40.8035Z" fill="black"/>
<path d="M33.4985 40.8035H31.0635V43.2384H33.4985V40.8035Z" fill="black"/>
<path d="M35.9334 40.8035H33.4985V43.2384H35.9334V40.8035Z" fill="black"/>
<path d="M50.5429 40.8035H48.108V43.2384H50.5429V40.8035Z" fill="black"/>
<path d="M52.9778 40.8035H50.5429V43.2384H52.9778V40.8035Z" fill="black"/>
<path d="M55.4128 40.8035H52.9778V43.2384H55.4128V40.8035Z" fill="black"/>
<path d="M65.1524 40.8035H62.7175V43.2384H65.1524V40.8035Z" fill="black"/>
<path d="M79.762 40.8035H77.327V43.2384H79.762V40.8035Z" fill="black"/>
<path d="M89.5016 40.8035H87.0667L87.0667 43.2384H89.5016V40.8035Z" fill="black"/>
<path d="M91.9366 40.8035H89.5016V43.2384H91.9366V40.8035Z" fill="black"/>
<path d="M96.8064 40.8035H94.3715L94.3715 43.2384H96.8064V40.8035Z" fill="black"/>
<path d="M99.2413 40.8035H96.8064V43.2384H99.2413V40.8035Z" fill="black"/>
<path d="M104.111 40.8035H101.676V43.2384H104.111V40.8035Z" fill="black"/>
<path d="M106.546 40.8035H104.111V43.2384H106.546L106.546 40.8035Z" fill="black"/>
<path d="M111.416 40.8035H108.981L108.981 43.2384H111.416V40.8035Z" fill="black"/>
<path d="M113.851 40.8035H111.416V43.2384H113.851V40.8035Z" fill="black"/>
<path d="M116.286 40.8035H113.851V43.2384H116.286V40.8035Z" fill="black"/>
<path d="M4.2794 43.2384H1.84448V45.6733H4.2794V43.2384Z" fill="black"/>
<path d="M14.0191 43.2384H11.5842V45.6733H14.0191V43.2384Z" fill="black"/>
<path d="M16.454 43.2384H14.0191V45.6733H16.454V43.2384Z" fill="black"/>
<path d="M28.6286 43.2384H26.1937V45.6733H28.6286V43.2384Z" fill="black"/>
<path d="M31.0635 43.2384H28.6286V45.6733H31.0635V43.2384Z" fill="black"/>
<path d="M35.9334 43.2384H33.4985V45.6733H35.9334V43.2384Z" fill="black"/>
<path d="M38.3683 43.2384H35.9334V45.6733H38.3683V43.2384Z" fill="black"/>
<path d="M40.8032 43.2384H38.3683V45.6733H40.8032V43.2384Z" fill="black"/>
<path d="M43.2381 43.2384H40.8032V45.6733H43.2381V43.2384Z" fill="black"/>
<path d="M50.5429 43.2384H48.108V45.6733H50.5429V43.2384Z" fill="black"/>
<path d="M52.9778 43.2384H50.5429V45.6733H52.9778V43.2384Z" fill="black"/>
<path d="M55.4128 43.2384H52.9778V45.6733H55.4128V43.2384Z" fill="black"/>
<path d="M62.7175 43.2384H60.2826V45.6733H62.7175V43.2384Z" fill="black"/>
<path d="M65.1524 43.2384H62.7175V45.6733H65.1524V43.2384Z" fill="black"/>
<path d="M67.5874 43.2384H65.1524V45.6733H67.5874V43.2384Z" fill="black"/>
<path d="M70.0223 43.2384H67.5874V45.6733H70.0223V43.2384Z" fill="black"/>
<path d="M72.4572 43.2384H70.0223V45.6733H72.4572V43.2384Z" fill="black"/>
<path d="M79.762 43.2384H77.327V45.6733H79.762V43.2384Z" fill="black"/>
<path d="M87.0667 43.2384H84.6318V45.6733H87.0667L87.0667 43.2384Z" fill="black"/>
<path d="M89.5016 43.2384H87.0667L87.0667 45.6733H89.5016V43.2384Z" fill="black"/>
<path d="M91.9366 43.2384H89.5016V45.6733H91.9366V43.2384Z" fill="black"/>
<path d="M104.111 43.2384H101.676V45.6733H104.111V43.2384Z" fill="black"/>
<path d="M106.546 43.2384H104.111V45.6733H106.546V43.2384Z" fill="black"/>
<path d="M108.981 43.2384H106.546V45.6733H108.981L108.981 43.2384Z" fill="black"/>
<path d="M118.721 43.2384H116.286L116.286 45.6733H118.721V43.2384Z" fill="black"/>
<path d="M121.156 43.2384H118.721V45.6733H121.156V43.2384Z" fill="black"/>
<path d="M18.8889 45.6733H16.454V48.1082H18.8889V45.6733Z" fill="black"/>
<path d="M21.3239 45.6733H18.8889V48.1082H21.3239V45.6733Z" fill="black"/>
<path d="M43.2381 45.6733H40.8032V48.1082H43.2381V45.6733Z" fill="black"/>
<path d="M45.6731 45.6733H43.2381V48.1082H45.6731V45.6733Z" fill="black"/>
<path d="M50.5429 45.6733H48.108V48.1082H50.5429V45.6733Z" fill="black"/>
<path d="M52.9778 45.6733H50.5429V48.1082H52.9778V45.6733Z" fill="black"/>
<path d="M57.8477 45.6733H55.4128V48.1082H57.8477V45.6733Z" fill="black"/>
<path d="M62.7175 45.6733H60.2826V48.1082H62.7175V45.6733Z" fill="black"/>
<path d="M65.1524 45.6733H62.7175V48.1082H65.1524V45.6733Z" fill="black"/>
<path d="M79.762 45.6733H77.327V48.1082H79.762V45.6733Z" fill="black"/>
<path d="M94.3715 45.6733H91.9366V48.1082H94.3715V45.6733Z" fill="black"/>
<path d="M108.981 45.6733H106.546L106.546 48.1082H108.981V45.6733Z" fill="black"/>
<path d="M118.721 45.6733H116.286V48.1082H118.721V45.6733Z" fill="black"/>
<path d="M121.156 45.6733H118.721V48.1082H121.156V45.6733Z" fill="black"/>
<path d="M4.2794 48.1082H1.84448V50.5432H4.2794V48.1082Z" fill="black"/>
<path d="M16.454 48.1082H14.0191V50.5432H16.454V48.1082Z" fill="black"/>
<path d="M23.7588 48.1082H21.3239V50.5432H23.7588V48.1082Z" fill="black"/>
<path d="M26.1937 48.1082H23.7588V50.5432H26.1937V48.1082Z" fill="black"/>
<path d="M28.6286 48.1082H26.1937V50.5432H28.6286V48.1082Z" fill="black"/>
<path d="M33.4985 48.1082H31.0635V50.5432H33.4985V48.1082Z" fill="black"/>
<path d="M35.9334 48.1082H33.4985V50.5432H35.9334V48.1082Z" fill="black"/>
<path d="M40.8032 48.1082H38.3683V50.5432H40.8032V48.1082Z" fill="black"/>
<path d="M48.108 48.1082H45.6731V50.5432H48.108V48.1082Z" fill="black"/>
<path d="M50.5429 48.1082H48.108V50.5432H50.5429V48.1082Z" fill="black"/>
<path d="M52.9778 48.1082H50.5429V50.5432H52.9778V48.1082Z" fill="black"/>
<path d="M57.8477 48.1082H55.4128V50.5432H57.8477V48.1082Z" fill="black"/>
<path d="M60.2826 48.1082H57.8477V50.5432H60.2826V48.1082Z" fill="black"/>
<path d="M65.1524 48.1082H62.7175V50.5432H65.1524V48.1082Z" fill="black"/>
<path d="M67.5874 48.1082H65.1524V50.5432H67.5874V48.1082Z" fill="black"/>
<path d="M74.8921 48.1082H72.4572V50.5432H74.8921V48.1082Z" fill="black"/>
<path d="M82.1969 48.1082H79.762L79.762 50.5432H82.1969V48.1082Z" fill="black"/>
<path d="M84.6318 48.1082H82.1969V50.5432H84.6318V48.1082Z" fill="black"/>
<path d="M89.5016 48.1082H87.0667V50.5432H89.5016V48.1082Z" fill="black"/>
<path d="M96.8064 48.1082H94.3715L94.3715 50.5432H96.8064V48.1082Z" fill="black"/>
<path d="M99.2413 48.1082H96.8064V50.5432H99.2413V48.1082Z" fill="black"/>
<path d="M101.676 48.1082H99.2413V50.5432H101.676V48.1082Z" fill="black"/>
<path d="M106.546 48.1082H104.111V50.5432H106.546L106.546 48.1082Z" fill="black"/>
<path d="M111.416 48.1082H108.981L108.981 50.5432H111.416V48.1082Z" fill="black"/>
<path d="M118.721 48.1082H116.286V50.5432H118.721V48.1082Z" fill="black"/>
<path d="M6.71432 50.5432H4.2794V52.9781H6.71432V50.5432Z" fill="black"/>
<path d="M11.5842 50.5432H9.14925V52.9781H11.5842V50.5432Z" fill="black"/>
<path d="M16.454 50.5432H14.0191V52.9781H16.454V50.5432Z" fill="black"/>
<path d="M18.8889 50.5432H16.454V52.9781H18.8889V50.5432Z" fill="black"/>
<path d="M26.1937 50.5432H23.7588V52.9781H26.1937V50.5432Z" fill="black"/>
<path d="M31.0635 50.5432H28.6286V52.9781H31.0635V50.5432Z" fill="black"/>
<path d="M33.4985 50.5432H31.0635V52.9781H33.4985V50.5432Z" fill="black"/>
<path d="M35.9334 50.5432H33.4985V52.9781H35.9334V50.5432Z" fill="black"/>
<path d="M45.6731 50.5432H43.2381V52.9781H45.6731V50.5432Z" fill="black"/>
<path d="M48.108 50.5432H45.6731V52.9781H48.108V50.5432Z" fill="black"/>
<path d="M72.4572 50.5432H70.0223V52.9781H72.4572V50.5432Z" fill="black"/>
<path d="M74.8921 50.5432H72.4572V52.9781H74.8921V50.5432Z" fill="black"/>
<path d="M79.762 50.5432H77.327V52.9781H79.762L79.762 50.5432Z" fill="black"/>
<path d="M82.1969 50.5432H79.762L79.762 52.9781H82.1969V50.5432Z" fill="black"/>
<path d="M87.0667 50.5432H84.6318L84.6318 52.9781H87.0667L87.0667 50.5432Z" fill="black"/>
<path d="M89.5016 50.5432H87.0667L87.0667 52.9781H89.5016V50.5432Z" fill="black"/>
<path d="M94.3715 50.5432H91.9366V52.9781H94.3715L94.3715 50.5432Z" fill="black"/>
<path d="M99.2413 50.5432H96.8064L96.8064 52.9781H99.2413V50.5432Z" fill="black"/>
<path d="M101.676 50.5432H99.2413V52.9781H101.676V50.5432Z" fill="black"/>
<path d="M104.111 50.5432H101.676V52.9781H104.111L104.111 50.5432Z" fill="black"/>
<path d="M106.546 50.5432H104.111L104.111 52.9781H106.546V50.5432Z" fill="black"/>
<path d="M108.981 50.5432H106.546V52.9781H108.981L108.981 50.5432Z" fill="black"/>
<path d="M111.416 50.5432H108.981L108.981 52.9781H111.416V50.5432Z" fill="black"/>
<path d="M118.721 50.5432H116.286V52.9781H118.721V50.5432Z" fill="black"/>
<path d="M121.156 50.5432H118.721V52.9781H121.156V50.5432Z" fill="black"/>
<path d="M6.71432 52.9781H4.2794V55.413H6.71432V52.9781Z" fill="black"/>
<path d="M11.5842 52.9781H9.14925V55.413H11.5842V52.9781Z" fill="black"/>
<path d="M16.454 52.9781H14.0191V55.413H16.454V52.9781Z" fill="black"/>
<path d="M21.3239 52.9781H18.8889V55.413H21.3239V52.9781Z" fill="black"/>
<path d="M26.1937 52.9781H23.7588V55.413H26.1937V52.9781Z" fill="black"/>
<path d="M38.3683 52.9781H35.9334V55.413H38.3683V52.9781Z" fill="black"/>
<path d="M40.8032 52.9781H38.3683V55.413H40.8032V52.9781Z" fill="black"/>
<path d="M43.2381 52.9781H40.8032V55.413H43.2381V52.9781Z" fill="black"/>
<path d="M55.4128 52.9781H52.9778V55.413H55.4128V52.9781Z" fill="black"/>
<path d="M57.8477 52.9781H55.4128V55.413H57.8477V52.9781Z" fill="black"/>
<path d="M60.2826 52.9781H57.8477V55.413H60.2826V52.9781Z" fill="black"/>
<path d="M65.1524 52.9781H62.7175V55.413H65.1524V52.9781Z" fill="black"/>
<path d="M67.5874 52.9781H65.1524V55.413H67.5874V52.9781Z" fill="black"/>
<path d="M70.0223 52.9781H67.5874V55.413H70.0223L70.0223 52.9781Z" fill="black"/>
<path d="M72.4572 52.9781H70.0223L70.0223 55.413H72.4572V52.9781Z" fill="black"/>
<path d="M87.0667 52.9781H84.6318V55.413H87.0667V52.9781Z" fill="black"/>
<path d="M99.2413 52.9781H96.8064V55.413H99.2413V52.9781Z" fill="black"/>
<path d="M104.111 52.9781H101.676V55.413H104.111V52.9781Z" fill="black"/>
<path d="M106.546 52.9781H104.111V55.413H106.546V52.9781Z" fill="black"/>
<path d="M108.981 52.9781H106.546V55.413H108.981V52.9781Z" fill="black"/>
<path d="M113.851 52.9781H111.416V55.413H113.851V52.9781Z" fill="black"/>
<path d="M116.286 52.9781H113.851V55.413H116.286L116.286 52.9781Z" fill="black"/>
<path d="M118.721 52.9781H116.286L116.286 55.413H118.721V52.9781Z" fill="black"/>
<path d="M4.2794 55.413H1.84448V57.8479H4.2794V55.413Z" fill="black"/>
<path d="M9.14925 55.413H6.71432V57.8479H9.14925V55.413Z" fill="black"/>
<path d="M14.0191 55.413H11.5842V57.8479H14.0191V55.413Z" fill="black"/>
<path d="M16.454 55.413H14.0191V57.8479H16.454V55.413Z" fill="black"/>
<path d="M18.8889 55.413H16.454V57.8479H18.8889V55.413Z" fill="black"/>
<path d="M21.3239 55.413H18.8889V57.8479H21.3239V55.413Z" fill="black"/>
<path d="M23.7588 55.413H21.3239V57.8479H23.7588V55.413Z" fill="black"/>
<path d="M35.9334 55.413H33.4985V57.8479H35.9334V55.413Z" fill="black"/>
<path d="M38.3683 55.413H35.9334V57.8479H38.3683V55.413Z" fill="black"/>
<path d="M43.2381 55.413H40.8032V57.8479H43.2381V55.413Z" fill="black"/>
<path d="M50.5429 55.413H48.108V57.8479H50.5429V55.413Z" fill="black"/>
<path d="M55.4128 55.413H52.9778V57.8479H55.4128V55.413Z" fill="black"/>
<path d="M57.8477 55.413H55.4128V57.8479H57.8477V55.413Z" fill="black"/>
<path d="M60.2826 55.413H57.8477V57.8479H60.2826V55.413Z" fill="black"/>
<path d="M62.7175 55.413H60.2826V57.8479H62.7175V55.413Z" fill="black"/>
<path d="M65.1524 55.413H62.7175V57.8479H65.1524V55.413Z" fill="black"/>
<path d="M67.5874 55.413H65.1524V57.8479H67.5874V55.413Z" fill="black"/>
<path d="M70.0223 55.413H67.5874V57.8479H70.0223V55.413Z" fill="black"/>
<path d="M87.0667 55.413H84.6318V57.8479H87.0667V55.413Z" fill="black"/>
<path d="M91.9366 55.413H89.5016V57.8479H91.9366V55.413Z" fill="black"/>
<path d="M96.8064 55.413H94.3715V57.8479H96.8064L96.8064 55.413Z" fill="black"/>
<path d="M99.2413 55.413H96.8064L96.8064 57.8479H99.2413V55.413Z" fill="black"/>
<path d="M101.676 55.413H99.2413V57.8479H101.676V55.413Z" fill="black"/>
<path d="M104.111 55.413H101.676V57.8479H104.111V55.413Z" fill="black"/>
<path d="M106.546 55.413H104.111V57.8479H106.546V55.413Z" fill="black"/>
<path d="M108.981 55.413H106.546V57.8479H108.981V55.413Z" fill="black"/>
<path d="M111.416 55.413H108.981V57.8479H111.416V55.413Z" fill="black"/>
<path d="M121.156 55.413H118.721L118.721 57.8479H121.156V55.413Z" fill="black"/>
<path d="M14.0191 57.8479H11.5842V60.2828H14.0191V57.8479Z" fill="black"/>
<path d="M23.7588 57.8479H21.3239V60.2828H23.7588V57.8479Z" fill="black"/>
<path d="M26.1937 57.8479H23.7588V60.2828H26.1937V57.8479Z" fill="black"/>
<path d="M31.0635 57.8479H28.6286V60.2828H31.0635V57.8479Z" fill="black"/>
<path d="M33.4985 57.8479H31.0635V60.2828H33.4985V57.8479Z" fill="black"/>
<path d="M35.9334 57.8479H33.4985V60.2828H35.9334V57.8479Z" fill="black"/>
<path d="M38.3683 57.8479H35.9334V60.2828H38.3683V57.8479Z" fill="black"/>
<path d="M43.2381 57.8479H40.8032V60.2828H43.2381V57.8479Z" fill="black"/>
<path d="M45.6731 57.8479H43.2381V60.2828H45.6731V57.8479Z" fill="black"/>
<path d="M52.9778 57.8479H50.5429V60.2828H52.9778V57.8479Z" fill="black"/>
<path d="M55.4128 57.8479H52.9778V60.2828H55.4128V57.8479Z" fill="black"/>
<path d="M57.8477 57.8479H55.4128V60.2828H57.8477V57.8479Z" fill="black"/>
<path d="M67.5874 57.8479H65.1524V60.2828H67.5874V57.8479Z" fill="black"/>
<path d="M72.4572 57.8479H70.0223L70.0223 60.2828H72.4572V57.8479Z" fill="black"/>
<path d="M77.327 57.8479H74.8921V60.2828H77.327V57.8479Z" fill="black"/>
<path d="M84.6318 57.8479H82.1969V60.2828H84.6318L84.6318 57.8479Z" fill="black"/>
<path d="M87.0667 57.8479H84.6318L84.6318 60.2828H87.0667V57.8479Z" fill="black"/>
<path d="M89.5016 57.8479H87.0667V60.2828H89.5016L89.5016 57.8479Z" fill="black"/>
<path d="M91.9366 57.8479H89.5016L89.5016 60.2828H91.9366V57.8479Z" fill="black"/>
<path d="M94.3715 57.8479H91.9366V60.2828H94.3715L94.3715 57.8479Z" fill="black"/>
<path d="M101.676 57.8479H99.2413L99.2413 60.2828H101.676V57.8479Z" fill="black"/>
<path d="M111.416 57.8479H108.981L108.981 60.2828H111.416V57.8479Z" fill="black"/>
<path d="M116.286 57.8479H113.851V60.2828H116.286V57.8479Z" fill="black"/>
<path d="M9.14925 60.2828H6.71432V62.7178H9.14925V60.2828Z" fill="black"/>
<path d="M11.5842 60.2828H9.14925V62.7178H11.5842V60.2828Z" fill="black"/>
<path d="M14.0191 60.2828H11.5842V62.7178H14.0191V60.2828Z" fill="black"/>
<path d="M18.8889 60.2828H16.454V62.7178H18.8889V60.2828Z" fill="black"/>
<path d="M23.7588 60.2828H21.3239V62.7178H23.7588V60.2828Z" fill="black"/>
<path d="M35.9334 60.2828H33.4985V62.7178H35.9334V60.2828Z" fill="black"/>
<path d="M48.108 60.2828H45.6731V62.7178H48.108V60.2828Z" fill="black"/>
<path d="M50.5429 60.2828H48.108V62.7178H50.5429V60.2828Z" fill="black"/>
<path d="M52.9778 60.2828H50.5429V62.7178H52.9778V60.2828Z" fill="black"/>
<path d="M55.4128 60.2828H52.9778V62.7178H55.4128V60.2828Z" fill="black"/>
<path d="M57.8477 60.2828H55.4128V62.7178H57.8477V60.2828Z" fill="black"/>
<path d="M62.7175 60.2828H60.2826V62.7178H62.7175V60.2828Z" fill="black"/>
<path d="M67.5874 60.2828H65.1524V62.7178H67.5874V60.2828Z" fill="black"/>
<path d="M70.0223 60.2828H67.5874V62.7178H70.0223L70.0223 60.2828Z" fill="black"/>
<path d="M72.4572 60.2828H70.0223L70.0223 62.7178H72.4572V60.2828Z" fill="black"/>
<path d="M82.1969 60.2828H79.762V62.7178H82.1969V60.2828Z" fill="black"/>
<path d="M89.5016 60.2828H87.0667L87.0667 62.7178H89.5016V60.2828Z" fill="black"/>
<path d="M91.9366 60.2828H89.5016V62.7178H91.9366V60.2828Z" fill="black"/>
<path d="M94.3715 60.2828H91.9366V62.7178H94.3715V60.2828Z" fill="black"/>
<path d="M96.8064 60.2828H94.3715V62.7178H96.8064V60.2828Z" fill="black"/>
<path d="M99.2413 60.2828H96.8064V62.7178H99.2413L99.2413 60.2828Z" fill="black"/>
<path d="M101.676 60.2828H99.2413L99.2413 62.7178H101.676V60.2828Z" fill="black"/>
<path d="M106.546 60.2828H104.111V62.7178H106.546V60.2828Z" fill="black"/>
<path d="M111.416 60.2828H108.981V62.7178H111.416V60.2828Z" fill="black"/>
<path d="M113.851 60.2828H111.416V62.7178H113.851L113.851 60.2828Z" fill="black"/>
<path d="M116.286 60.2828H113.851L113.851 62.7178H116.286V60.2828Z" fill="black"/>
<path d="M11.5842 62.7178H9.14925V65.1527H11.5842V62.7178Z" fill="black"/>
<path d="M14.0191 62.7178H11.5842V65.1527H14.0191V62.7178Z" fill="black"/>
<path d="M23.7588 62.7178H21.3239V65.1527H23.7588V62.7178Z" fill="black"/>
<path d="M26.1937 62.7178H23.7588V65.1527H26.1937V62.7178Z" fill="black"/>
<path d="M28.6286 62.7178H26.1937V65.1527H28.6286V62.7178Z" fill="black"/>
<path d="M35.9334 62.7178H33.4985V65.1527H35.9334V62.7178Z" fill="black"/>
<path d="M40.8032 62.7178H38.3683V65.1527H40.8032V62.7178Z" fill="black"/>
<path d="M45.6731 62.7178H43.2381V65.1527H45.6731V62.7178Z" fill="black"/>
<path d="M55.4128 62.7178H52.9778V65.1527H55.4128V62.7178Z" fill="black"/>
<path d="M57.8477 62.7178H55.4128V65.1527H57.8477V62.7178Z" fill="black"/>
<path d="M67.5874 62.7178H65.1524V65.1527H67.5874V62.7178Z" fill="black"/>
<path d="M70.0223 62.7178H67.5874V65.1527H70.0223V62.7178Z" fill="black"/>
<path d="M72.4572 62.7178H70.0223V65.1527H72.4572V62.7178Z" fill="black"/>
<path d="M77.327 62.7178H74.8921V65.1527H77.327V62.7178Z" fill="black"/>
<path d="M79.762 62.7178H77.327V65.1527H79.762L79.762 62.7178Z" fill="black"/>
<path d="M82.1969 62.7178H79.762L79.762 65.1527H82.1969V62.7178Z" fill="black"/>
<path d="M89.5016 62.7178H87.0667V65.1527H89.5016V62.7178Z" fill="black"/>
<path d="M91.9366 62.7178H89.5016V65.1527H91.9366V62.7178Z" fill="black"/>
<path d="M101.676 62.7178H99.2413L99.2413 65.1527H101.676V62.7178Z" fill="black"/>
<path d="M111.416 62.7178H108.981V65.1527H111.416V62.7178Z" fill="black"/>
<path d="M113.851 62.7178H111.416V65.1527H113.851V62.7178Z" fill="black"/>
<path d="M118.721 62.7178H116.286L116.286 65.1527H118.721V62.7178Z" fill="black"/>
<path d="M121.156 62.7178H118.721V65.1527H121.156V62.7178Z" fill="black"/>
<path d="M6.71432 65.1527H4.2794V67.5876H6.71432V65.1527Z" fill="black"/>
<path d="M11.5842 65.1527H9.14925V67.5876H11.5842V65.1527Z" fill="black"/>
<path d="M14.0191 65.1527H11.5842V67.5876H14.0191V65.1527Z" fill="black"/>
<path d="M16.454 65.1527H14.0191V67.5876H16.454V65.1527Z" fill="black"/>
<path d="M18.8889 65.1527H16.454V67.5876H18.8889V65.1527Z" fill="black"/>
<path d="M21.3239 65.1527H18.8889V67.5876H21.3239V65.1527Z" fill="black"/>
<path d="M23.7588 65.1527H21.3239V67.5876H23.7588V65.1527Z" fill="black"/>
<path d="M28.6286 65.1527H26.1937V67.5876H28.6286V65.1527Z" fill="black"/>
<path d="M31.0635 65.1527H28.6286V67.5876H31.0635V65.1527Z" fill="black"/>
<path d="M33.4985 65.1527H31.0635V67.5876H33.4985V65.1527Z" fill="black"/>
<path d="M43.2381 65.1527H40.8032V67.5876H43.2381V65.1527Z" fill="black"/>
<path d="M52.9778 65.1527H50.5429V67.5876H52.9778V65.1527Z" fill="black"/>
<path d="M55.4128 65.1527H52.9778V67.5876H55.4128V65.1527Z" fill="black"/>
<path d="M57.8477 65.1527H55.4128V67.5876H57.8477V65.1527Z" fill="black"/>
<path d="M60.2826 65.1527H57.8477V67.5876H60.2826V65.1527Z" fill="black"/>
<path d="M62.7175 65.1527H60.2826V67.5876H62.7175V65.1527Z" fill="black"/>
<path d="M65.1524 65.1527H62.7175V67.5876H65.1524V65.1527Z" fill="black"/>
<path d="M67.5874 65.1527H65.1524V67.5876H67.5874V65.1527Z" fill="black"/>
<path d="M72.4572 65.1527H70.0223L70.0223 67.5876H72.4572V65.1527Z" fill="black"/>
<path d="M74.8921 65.1527H72.4572V67.5876H74.8921L74.8921 65.1527Z" fill="black"/>
<path d="M77.327 65.1527H74.8921L74.8921 67.5876H77.327V65.1527Z" fill="black"/>
<path d="M79.762 65.1527H77.327V67.5876H79.762V65.1527Z" fill="black"/>
<path d="M82.1969 65.1527H79.762V67.5876H82.1969V65.1527Z" fill="black"/>
<path d="M84.6318 65.1527H82.1969V67.5876H84.6318V65.1527Z" fill="black"/>
<path d="M87.0667 65.1527H84.6318V67.5876H87.0667L87.0667 65.1527Z" fill="black"/>
<path d="M91.9366 65.1527H89.5016L89.5016 67.5876H91.9366V65.1527Z" fill="black"/>
<path d="M96.8064 65.1527H94.3715V67.5876H96.8064V65.1527Z" fill="black"/>
<path d="M99.2413 65.1527H96.8064V67.5876H99.2413L99.2413 65.1527Z" fill="black"/>
<path d="M101.676 65.1527H99.2413L99.2413 67.5876H101.676V65.1527Z" fill="black"/>
<path d="M104.111 65.1527H101.676V67.5876H104.111V65.1527Z" fill="black"/>
<path d="M106.546 65.1527H104.111V67.5876H106.546V65.1527Z" fill="black"/>
<path d="M108.981 65.1527H106.546V67.5876H108.981L108.981 65.1527Z" fill="black"/>
<path d="M111.416 65.1527H108.981L108.981 67.5876H111.416V65.1527Z" fill="black"/>
<path d="M113.851 65.1527H111.416V67.5876H113.851V65.1527Z" fill="black"/>
<path d="M121.156 65.1527H118.721L118.721 67.5876H121.156V65.1527Z" fill="black"/>
<path d="M6.71432 67.5876H4.2794V70.0225H6.71432V67.5876Z" fill="black"/>
<path d="M9.14925 67.5876H6.71432V70.0225H9.14925V67.5876Z" fill="black"/>
<path d="M28.6286 67.5876H26.1937V70.0225H28.6286V67.5876Z" fill="black"/>
<path d="M33.4985 67.5876H31.0635V70.0225H33.4985V67.5876Z" fill="black"/>
<path d="M35.9334 67.5876H33.4985V70.0225H35.9334V67.5876Z" fill="black"/>
<path d="M43.2381 67.5876H40.8032V70.0225H43.2381V67.5876Z" fill="black"/>
<path d="M45.6731 67.5876H43.2381V70.0225H45.6731V67.5876Z" fill="black"/>
<path d="M60.2826 67.5876H57.8477V70.0225H60.2826V67.5876Z" fill="black"/>
<path d="M62.7175 67.5876H60.2826V70.0225H62.7175V67.5876Z" fill="black"/>
<path d="M65.1524 67.5876H62.7175V70.0225H65.1524V67.5876Z" fill="black"/>
<path d="M67.5874 67.5876H65.1524V70.0225H67.5874V67.5876Z" fill="black"/>
<path d="M89.5016 67.5876H87.0667L87.0667 70.0225H89.5016L89.5016 67.5876Z" fill="black"/>
<path d="M91.9366 67.5876H89.5016L89.5016 70.0225H91.9366V67.5876Z" fill="black"/>
<path d="M94.3715 67.5876H91.9366V70.0225H94.3715L94.3715 67.5876Z" fill="black"/>
<path d="M96.8064 67.5876H94.3715L94.3715 70.0225H96.8064V67.5876Z" fill="black"/>
<path d="M113.851 67.5876H111.416V70.0225H113.851V67.5876Z" fill="black"/>
<path d="M121.156 67.5876H118.721V70.0225H121.156V67.5876Z" fill="black"/>
<path d="M4.2794 70.0225L1.84448 70.0225V72.4574H4.2794V70.0225Z" fill="black"/>
<path d="M6.71432 70.0225H4.2794V72.4574H6.71432V70.0225Z" fill="black"/>
<path d="M9.14925 70.0225H6.71432V72.4574H9.14925V70.0225Z" fill="black"/>
<path d="M11.5842 70.0225L9.14925 70.0225V72.4574H11.5842V70.0225Z" fill="black"/>
<path d="M14.0191 70.0225H11.5842V72.4574H14.0191V70.0225Z" fill="black"/>
<path d="M18.8889 70.0225H16.454V72.4574H18.8889V70.0225Z" fill="black"/>
<path d="M21.3239 70.0225H18.8889V72.4574H21.3239V70.0225Z" fill="black"/>
<path d="M23.7588 70.0225H21.3239V72.4574H23.7588V70.0225Z" fill="black"/>
<path d="M26.1937 70.0225L23.7588 70.0225V72.4574H26.1937V70.0225Z" fill="black"/>
<path d="M28.6286 70.0225H26.1937V72.4574H28.6286V70.0225Z" fill="black"/>
<path d="M31.0635 70.0225H28.6286V72.4574H31.0635V70.0225Z" fill="black"/>
<path d="M33.4985 70.0225H31.0635V72.4574H33.4985V70.0225Z" fill="black"/>
<path d="M35.9334 70.0225H33.4985V72.4574H35.9334V70.0225Z" fill="black"/>
<path d="M57.8477 70.0225L55.4128 70.0225V72.4574H57.8477V70.0225Z" fill="black"/>
<path d="M60.2826 70.0225H57.8477V72.4574H60.2826V70.0225Z" fill="black"/>
<path d="M62.7175 70.0225H60.2826V72.4574H62.7175V70.0225Z" fill="black"/>
<path d="M67.5874 70.0225H65.1524V72.4574H67.5874V70.0225Z" fill="black"/>
<path d="M70.0223 70.0225L67.5874 70.0225V72.4574H70.0223V70.0225Z" fill="black"/>
<path d="M72.4572 70.0225H70.0223V72.4574H72.4572V70.0225Z" fill="black"/>
<path d="M87.0667 70.0225L84.6318 70.0225V72.4574H87.0667L87.0667 70.0225Z" fill="black"/>
<path d="M89.5016 70.0225H87.0667L87.0667 72.4574H89.5016V70.0225Z" fill="black"/>
<path d="M91.9366 70.0225H89.5016V72.4574H91.9366V70.0225Z" fill="black"/>
<path d="M96.8064 70.0225H94.3715L94.3715 72.4574H96.8064V70.0225Z" fill="black"/>
<path d="M108.981 70.0225H106.546V72.4574H108.981V70.0225Z" fill="black"/>
<path d="M111.416 70.0225L108.981 70.0225V72.4574H111.416V70.0225Z" fill="black"/>
<path d="M116.286 70.0225L113.851 70.0225L113.851 72.4574H116.286V70.0225Z" fill="black"/>
<path d="M121.156 70.0225H118.721V72.4574H121.156V70.0225Z" fill="black"/>
<path d="M6.71432 72.4574H4.2794V74.8924H6.71432V72.4574Z" fill="black"/>
<path d="M9.14925 72.4574H6.71432V74.8924H9.14925V72.4574Z" fill="black"/>
<path d="M16.454 72.4574H14.0191V74.8924H16.454V72.4574Z" fill="black"/>
<path d="M26.1937 72.4574H23.7588V74.8924H26.1937V72.4574Z" fill="black"/>
<path d="M31.0635 72.4574H28.6286V74.8924H31.0635V72.4574Z" fill="black"/>
<path d="M38.3683 72.4574H35.9334V74.8924H38.3683V72.4574Z" fill="black"/>
<path d="M40.8032 72.4574H38.3683V74.8924H40.8032V72.4574Z" fill="black"/>
<path d="M43.2381 72.4574H40.8032V74.8924H43.2381V72.4574Z" fill="black"/>
<path d="M48.108 72.4574H45.6731V74.8924H48.108V72.4574Z" fill="black"/>
<path d="M50.5429 72.4574H48.108V74.8924H50.5429V72.4574Z" fill="black"/>
<path d="M52.9778 72.4574H50.5429V74.8924H52.9778V72.4574Z" fill="black"/>
<path d="M55.4128 72.4574H52.9778V74.8924H55.4128V72.4574Z" fill="black"/>
<path d="M57.8477 72.4574H55.4128V74.8924H57.8477V72.4574Z" fill="black"/>
<path d="M60.2826 72.4574H57.8477V74.8924H60.2826V72.4574Z" fill="black"/>
<path d="M62.7175 72.4574H60.2826V74.8924H62.7175V72.4574Z" fill="black"/>
<path d="M65.1524 72.4574H62.7175V74.8924H65.1524V72.4574Z" fill="black"/>
<path d="M67.5874 72.4574H65.1524V74.8924H67.5874V72.4574Z" fill="black"/>
<path d="M70.0223 72.4574H67.5874V74.8924H70.0223V72.4574Z" fill="black"/>
<path d="M77.327 72.4574H74.8921V74.8924H77.327V72.4574Z" fill="black"/>
<path d="M82.1969 72.4574H79.762V74.8924H82.1969V72.4574Z" fill="black"/>
<path d="M87.0667 72.4574H84.6318V74.8924H87.0667V72.4574Z" fill="black"/>
<path d="M91.9366 72.4574H89.5016L89.5016 74.8924H91.9366V72.4574Z" fill="black"/>
<path d="M94.3715 72.4574H91.9366V74.8924H94.3715L94.3715 72.4574Z" fill="black"/>
<path d="M104.111 72.4574H101.676V74.8924H104.111V72.4574Z" fill="black"/>
<path d="M108.981 72.4574H106.546V74.8924H108.981V72.4574Z" fill="black"/>
<path d="M111.416 72.4574H108.981V74.8924H111.416V72.4574Z" fill="black"/>
<path d="M113.851 72.4574H111.416V74.8924H113.851L113.851 72.4574Z" fill="black"/>
<path d="M116.286 72.4574H113.851L113.851 74.8924H116.286V72.4574Z" fill="black"/>
<path d="M118.721 72.4574H116.286V74.8924H118.721L118.721 72.4574Z" fill="black"/>
<path d="M4.2794 74.8924L1.84448 74.8924V77.3273H4.2794V74.8924Z" fill="black"/>
<path d="M14.0191 74.8924L11.5842 74.8924V77.3273H14.0191V74.8924Z" fill="black"/>
<path d="M18.8889 74.8924L16.454 74.8924V77.3273H18.8889V74.8924Z" fill="black"/>
<path d="M21.3239 74.8924H18.8889V77.3273H21.3239V74.8924Z" fill="black"/>
<path d="M23.7588 74.8924L21.3239 74.8924V77.3273H23.7588V74.8924Z" fill="black"/>
<path d="M26.1937 74.8924H23.7588V77.3273H26.1937V74.8924Z" fill="black"/>
<path d="M31.0635 74.8924H28.6286V77.3273H31.0635V74.8924Z" fill="black"/>
<path d="M33.4985 74.8924L31.0635 74.8924V77.3273H33.4985V74.8924Z" fill="black"/>
<path d="M35.9334 74.8924L33.4985 74.8924V77.3273H35.9334V74.8924Z" fill="black"/>
<path d="M38.3683 74.8924H35.9334V77.3273H38.3683V74.8924Z" fill="black"/>
<path d="M48.108 74.8924H45.6731V77.3273H48.108V74.8924Z" fill="black"/>
<path d="M55.4128 74.8924H52.9778V77.3273H55.4128V74.8924Z" fill="black"/>
<path d="M60.2826 74.8924H57.8477V77.3273H60.2826V74.8924Z" fill="black"/>
<path d="M62.7175 74.8924H60.2826V77.3273H62.7175V74.8924Z" fill="black"/>
<path d="M65.1524 74.8924H62.7175V77.3273H65.1524V74.8924Z" fill="black"/>
<path d="M70.0223 74.8924H67.5874V77.3273H70.0223V74.8924Z" fill="black"/>
<path d="M74.8921 74.8924L72.4572 74.8924V77.3273H74.8921L74.8921 74.8924Z" fill="black"/>
<path d="M79.762 74.8924H77.327L77.327 77.3273H79.762L79.762 74.8924Z" fill="black"/>
<path d="M84.6318 74.8924H82.1969V77.3273H84.6318L84.6318 74.8924Z" fill="black"/>
<path d="M96.8064 74.8924L94.3715 74.8924L94.3715 77.3273H96.8064V74.8924Z" fill="black"/>
<path d="M99.2413 74.8924H96.8064V77.3273H99.2413V74.8924Z" fill="black"/>
<path d="M101.676 74.8924L99.2413 74.8924V77.3273H101.676V74.8924Z" fill="black"/>
<path d="M104.111 74.8924H101.676V77.3273H104.111V74.8924Z" fill="black"/>
<path d="M106.546 74.8924H104.111V77.3273H106.546L106.546 74.8924Z" fill="black"/>
<path d="M113.851 74.8924H111.416V77.3273H113.851V74.8924Z" fill="black"/>
<path d="M118.721 74.8924H116.286L116.286 77.3273H118.721V74.8924Z" fill="black"/>
<path d="M4.2794 77.3273H1.84448V79.7622H4.2794V77.3273Z" fill="black"/>
<path d="M6.71432 77.3273L4.2794 77.3273V79.7622H6.71432V77.3273Z" fill="black"/>
<path d="M9.14925 77.3273H6.71432V79.7622H9.14925V77.3273Z" fill="black"/>
<path d="M11.5842 77.3273L9.14925 77.3273V79.7622H11.5842V77.3273Z" fill="black"/>
<path d="M14.0191 77.3273H11.5842V79.7622H14.0191V77.3273Z" fill="black"/>
<path d="M16.454 77.3273H14.0191V79.7622H16.454V77.3273Z" fill="black"/>
<path d="M23.7588 77.3273H21.3239V79.7622H23.7588V77.3273Z" fill="black"/>
<path d="M26.1937 77.3273H23.7588V79.7622H26.1937V77.3273Z" fill="black"/>
<path d="M35.9334 77.3273H33.4985V79.7622H35.9334V77.3273Z" fill="black"/>
<path d="M40.8032 77.3273L38.3683 77.3273V79.7622H40.8032V77.3273Z" fill="black"/>
<path d="M43.2381 77.3273H40.8032V79.7622H43.2381V77.3273Z" fill="black"/>
<path d="M48.108 77.3273H45.6731V79.7622H48.108V77.3273Z" fill="black"/>
<path d="M50.5429 77.3273L48.108 77.3273V79.7622H50.5429V77.3273Z" fill="black"/>
<path d="M52.9778 77.3273L50.5429 77.3273V79.7622H52.9778V77.3273Z" fill="black"/>
<path d="M55.4128 77.3273H52.9778V79.7622H55.4128V77.3273Z" fill="black"/>
<path d="M57.8477 77.3273H55.4128V79.7622H57.8477V77.3273Z" fill="black"/>
<path d="M60.2826 77.3273H57.8477V79.7622H60.2826V77.3273Z" fill="black"/>
<path d="M67.5874 77.3273H65.1524V79.7622H67.5874V77.3273Z" fill="black"/>
<path d="M72.4572 77.3273H70.0223L70.0223 79.7622H72.4572V77.3273Z" fill="black"/>
<path d="M79.762 77.3273H77.327V79.7622H79.762V77.3273Z" fill="black"/>
<path d="M87.0667 77.3273L84.6318 77.3273L84.6318 79.7622H87.0667V77.3273Z" fill="black"/>
<path d="M91.9366 77.3273H89.5016V79.7622H91.9366V77.3273Z" fill="black"/>
<path d="M94.3715 77.3273L91.9366 77.3273V79.7622H94.3715L94.3715 77.3273Z" fill="black"/>
<path d="M96.8064 77.3273H94.3715L94.3715 79.7622H96.8064V77.3273Z" fill="black"/>
<path d="M99.2413 77.3273H96.8064V79.7622H99.2413V77.3273Z" fill="black"/>
<path d="M101.676 77.3273H99.2413V79.7622H101.676V77.3273Z" fill="black"/>
<path d="M104.111 77.3273H101.676V79.7622H104.111V77.3273Z" fill="black"/>
<path d="M106.546 77.3273H104.111V79.7622H106.546V77.3273Z" fill="black"/>
<path d="M108.981 77.3273L106.546 77.3273V79.7622H108.981V77.3273Z" fill="black"/>
<path d="M113.851 77.3273H111.416V79.7622H113.851V77.3273Z" fill="black"/>
<path d="M116.286 77.3273H113.851V79.7622H116.286L116.286 77.3273Z" fill="black"/>
<path d="M4.2794 79.7622H1.84448V82.1971H4.2794V79.7622Z" fill="black"/>
<path d="M6.71432 79.7622H4.2794V82.1971H6.71432V79.7622Z" fill="black"/>
<path d="M9.14925 79.7622H6.71432V82.1971H9.14925V79.7622Z" fill="black"/>
<path d="M11.5842 79.7622H9.14925V82.1971H11.5842V79.7622Z" fill="black"/>
<path d="M18.8889 79.7622L16.454 79.7622V82.1971H18.8889V79.7622Z" fill="black"/>
<path d="M21.3239 79.7622L18.8889 79.7622V82.1971H21.3239V79.7622Z" fill="black"/>
<path d="M26.1937 79.7622H23.7588V82.1971H26.1937V79.7622Z" fill="black"/>
<path d="M28.6286 79.7622L26.1937 79.7622V82.1971H28.6286V79.7622Z" fill="black"/>
<path d="M38.3683 79.7622H35.9334V82.1971H38.3683V79.7622Z" fill="black"/>
<path d="M43.2381 79.7622H40.8032V82.1971H43.2381V79.7622Z" fill="black"/>
<path d="M48.108 79.7622H45.6731V82.1971H48.108V79.7622Z" fill="black"/>
<path d="M55.4128 79.7622H52.9778V82.1971H55.4128V79.7622Z" fill="black"/>
<path d="M60.2826 79.7622H57.8477V82.1971H60.2826V79.7622Z" fill="black"/>
<path d="M62.7175 79.7622L60.2826 79.7622V82.1971H62.7175V79.7622Z" fill="black"/>
<path d="M65.1524 79.7622L62.7175 79.7622V82.1971H65.1524V79.7622Z" fill="black"/>
<path d="M72.4572 79.7622H70.0223V82.1971H72.4572V79.7622Z" fill="black"/>
<path d="M74.8921 79.7622L72.4572 79.7622V82.1971H74.8921V79.7622Z" fill="black"/>
<path d="M79.762 79.7622H77.327V82.1971H79.762V79.7622Z" fill="black"/>
<path d="M82.1969 79.7622L79.762 79.7622V82.1971H82.1969V79.7622Z" fill="black"/>
<path d="M91.9366 79.7622H89.5016V82.1971H91.9366V79.7622Z" fill="black"/>
<path d="M101.676 79.7622H99.2413L99.2413 82.1971H101.676V79.7622Z" fill="black"/>
<path d="M106.546 79.7622H104.111L104.111 82.1971H106.546V79.7622Z" fill="black"/>
<path d="M118.721 79.7622L116.286 79.7622L116.286 82.1971H118.721V79.7622Z" fill="black"/>
<path d="M121.156 79.7622H118.721V82.1971H121.156V79.7622Z" fill="black"/>
<path d="M11.5842 82.1971H9.14925V84.6321H11.5842V82.1971Z" fill="black"/>
<path d="M21.3239 82.1971H18.8889V84.6321H21.3239V82.1971Z" fill="black"/>
<path d="M23.7588 82.1971H21.3239V84.6321H23.7588V82.1971Z" fill="black"/>
<path d="M28.6286 82.1971H26.1937V84.6321H28.6286V82.1971Z" fill="black"/>
<path d="M31.0635 82.1971H28.6286V84.6321H31.0635V82.1971Z" fill="black"/>
<path d="M35.9334 82.1971H33.4985V84.6321H35.9334V82.1971Z" fill="black"/>
<path d="M40.8032 82.1971H38.3683V84.6321H40.8032V82.1971Z" fill="black"/>
<path d="M43.2381 82.1971H40.8032V84.6321H43.2381V82.1971Z" fill="black"/>
<path d="M45.6731 82.1971H43.2381V84.6321H45.6731V82.1971Z" fill="black"/>
<path d="M48.108 82.1971H45.6731V84.6321H48.108V82.1971Z" fill="black"/>
<path d="M55.4128 82.1971H52.9778V84.6321H55.4128V82.1971Z" fill="black"/>
<path d="M60.2826 82.1971H57.8477V84.6321H60.2826V82.1971Z" fill="black"/>
<path d="M67.5874 82.1971H65.1524V84.6321H67.5874V82.1971Z" fill="black"/>
<path d="M74.8921 82.1971H72.4572V84.6321H74.8921V82.1971Z" fill="black"/>
<path d="M77.327 82.1971H74.8921V84.6321H77.327L77.327 82.1971Z" fill="black"/>
<path d="M79.762 82.1971H77.327L77.327 84.6321H79.762V82.1971Z" fill="black"/>
<path d="M82.1969 82.1971H79.762V84.6321H82.1969V82.1971Z" fill="black"/>
<path d="M84.6318 82.1971H82.1969V84.6321H84.6318V82.1971Z" fill="black"/>
<path d="M87.0667 82.1971H84.6318V84.6321H87.0667V82.1971Z" fill="black"/>
<path d="M91.9366 82.1971H89.5016V84.6321H91.9366V82.1971Z" fill="black"/>
<path d="M116.286 82.1971H113.851V84.6321H116.286L116.286 82.1971Z" fill="black"/>
<path d="M118.721 82.1971H116.286L116.286 84.6321H118.721V82.1971Z" fill="black"/>
<path d="M4.2794 84.632H1.84448V87.067H4.2794V84.632Z" fill="black"/>
<path d="M6.71432 84.632H4.2794V87.067H6.71432V84.632Z" fill="black"/>
<path d="M11.5842 84.6321H9.14925V87.067H11.5842V84.6321Z" fill="black"/>
<path d="M18.8889 84.6321L16.454 84.632V87.067H18.8889V84.6321Z" fill="black"/>
<path d="M23.7588 84.6321H21.3239V87.067H23.7588V84.6321Z" fill="black"/>
<path d="M26.1937 84.6321H23.7588V87.067H26.1937V84.6321Z" fill="black"/>
<path d="M28.6286 84.6321H26.1937V87.067H28.6286V84.6321Z" fill="black"/>
<path d="M43.2381 84.6321H40.8032V87.067H43.2381V84.6321Z" fill="black"/>
<path d="M48.108 84.6321H45.6731V87.067H48.108V84.6321Z" fill="black"/>
<path d="M52.9778 84.6321L50.5429 84.632V87.067H52.9778V84.6321Z" fill="black"/>
<path d="M55.4128 84.6321H52.9778V87.067H55.4128V84.6321Z" fill="black"/>
<path d="M57.8477 84.6321H55.4128V87.067H57.8477V84.6321Z" fill="black"/>
<path d="M60.2826 84.6321H57.8477V87.067H60.2826V84.6321Z" fill="black"/>
<path d="M62.7175 84.632L60.2826 84.6321V87.067H62.7175V84.632Z" fill="black"/>
<path d="M70.0223 84.632L67.5874 84.6321V87.067H70.0223V84.632Z" fill="black"/>
<path d="M72.4572 84.6321L70.0223 84.632V87.067H72.4572V84.6321Z" fill="black"/>
<path d="M74.8921 84.6321H72.4572V87.067H74.8921V84.6321Z" fill="black"/>
<path d="M79.762 84.6321H77.327L77.327 87.067H79.762V84.6321Z" fill="black"/>
<path d="M84.6318 84.6321H82.1969V87.067H84.6318V84.6321Z" fill="black"/>
<path d="M87.0667 84.6321H84.6318V87.067H87.0667V84.6321Z" fill="black"/>
<path d="M89.5016 84.6321H87.0667V87.067H89.5016L89.5016 84.6321Z" fill="black"/>
<path d="M99.2413 84.632H96.8064V87.067H99.2413V84.632Z" fill="black"/>
<path d="M104.111 84.632H101.676V87.067H104.111V84.632Z" fill="black"/>
<path d="M106.546 84.632H104.111V87.067H106.546V84.632Z" fill="black"/>
<path d="M108.981 84.632H106.546V87.067H108.981V84.632Z" fill="black"/>
<path d="M111.416 84.632H108.981V87.067H111.416V84.632Z" fill="black"/>
<path d="M113.851 84.6321L111.416 84.632V87.067H113.851L113.851 84.6321Z" fill="black"/>
<path d="M116.286 84.6321H113.851L113.851 87.067H116.286V84.6321Z" fill="black"/>
<path d="M4.2794 87.067H1.84448V89.5019H4.2794V87.067Z" fill="black"/>
<path d="M11.5842 87.067H9.14925V89.5019H11.5842V87.067Z" fill="black"/>
<path d="M14.0191 87.067L11.5842 87.067V89.5019H14.0191V87.067Z" fill="black"/>
<path d="M21.3239 87.067H18.8889V89.5019H21.3239V87.067Z" fill="black"/>
<path d="M26.1937 87.067H23.7588V89.5019H26.1937V87.067Z" fill="black"/>
<path d="M28.6286 87.067H26.1937V89.5019H28.6286V87.067Z" fill="black"/>
<path d="M31.0635 87.067L28.6286 87.067V89.5019H31.0635V87.067Z" fill="black"/>
<path d="M38.3683 87.067H35.9334V89.5019H38.3683V87.067Z" fill="black"/>
<path d="M48.108 87.067H45.6731V89.5019H48.108V87.067Z" fill="black"/>
<path d="M50.5429 87.067H48.108V89.5019H50.5429V87.067Z" fill="black"/>
<path d="M65.1524 87.067L62.7175 87.067V89.5019H65.1524V87.067Z" fill="black"/>
<path d="M67.5874 87.067L65.1524 87.067V89.5019H67.5874V87.067Z" fill="black"/>
<path d="M74.8921 87.067H72.4572V89.5019H74.8921V87.067Z" fill="black"/>
<path d="M77.327 87.067H74.8921V89.5019H77.327L77.327 87.067Z" fill="black"/>
<path d="M82.1969 87.067H79.762L79.762 89.5019H82.1969V87.067Z" fill="black"/>
<path d="M94.3715 87.067H91.9366V89.5019H94.3715V87.067Z" fill="black"/>
<path d="M111.416 87.067H108.981L108.981 89.5019H111.416V87.067Z" fill="black"/>
<path d="M113.851 87.067H111.416V89.5019H113.851V87.067Z" fill="black"/>
<path d="M116.286 87.067H113.851V89.5019H116.286V87.067Z" fill="black"/>
<path d="M118.721 87.067L116.286 87.067V89.5019H118.721V87.067Z" fill="black"/>
<path d="M6.71432 89.5019L4.2794 89.5019V91.9368H6.71432V89.5019Z" fill="black"/>
<path d="M11.5842 89.5019H9.14925V91.9368H11.5842V89.5019Z" fill="black"/>
<path d="M14.0191 89.5019H11.5842V91.9368H14.0191V89.5019Z" fill="black"/>
<path d="M18.8889 89.5019L16.454 89.5019V91.9368H18.8889V89.5019Z" fill="black"/>
<path d="M21.3239 89.5019H18.8889V91.9368H21.3239V89.5019Z" fill="black"/>
<path d="M23.7588 89.5019H21.3239V91.9368H23.7588V89.5019Z" fill="black"/>
<path d="M26.1937 89.5019H23.7588V91.9368H26.1937V89.5019Z" fill="black"/>
<path d="M28.6286 89.5019H26.1937V91.9368H28.6286V89.5019Z" fill="black"/>
<path d="M33.4985 89.5019L31.0635 89.5019V91.9368H33.4985V89.5019Z" fill="black"/>
<path d="M35.9334 89.5019L33.4985 89.5019V91.9368H35.9334V89.5019Z" fill="black"/>
<path d="M38.3683 89.5019H35.9334V91.9368H38.3683V89.5019Z" fill="black"/>
<path d="M43.2381 89.5019H40.8032V91.9368H43.2381V89.5019Z" fill="black"/>
<path d="M45.6731 89.5019L43.2381 89.5019V91.9368H45.6731V89.5019Z" fill="black"/>
<path d="M52.9778 89.5019L50.5429 89.5019V91.9368H52.9778V89.5019Z" fill="black"/>
<path d="M55.4128 89.5019H52.9778V91.9368H55.4128V89.5019Z" fill="black"/>
<path d="M57.8477 89.5019H55.4128V91.9368H57.8477V89.5019Z" fill="black"/>
<path d="M62.7175 89.5019L60.2826 89.5019V91.9368H62.7175V89.5019Z" fill="black"/>
<path d="M72.4572 89.5019L70.0223 89.5019V91.9368H72.4572V89.5019Z" fill="black"/>
<path d="M74.8921 89.5019H72.4572V91.9368H74.8921V89.5019Z" fill="black"/>
<path d="M77.327 89.5019H74.8921V91.9368H77.327V89.5019Z" fill="black"/>
<path d="M79.762 89.5019H77.327V91.9368H79.762L79.762 89.5019Z" fill="black"/>
<path d="M91.9366 89.5019L89.5016 89.5019V91.9368H91.9366V89.5019Z" fill="black"/>
<path d="M94.3715 89.5019H91.9366V91.9368H94.3715V89.5019Z" fill="black"/>
<path d="M96.8064 89.5019L94.3715 89.5019V91.9368H96.8064V89.5019Z" fill="black"/>
<path d="M101.676 89.5019H99.2413V91.9368H101.676V89.5019Z" fill="black"/>
<path d="M111.416 89.5019H108.981V91.9368H111.416V89.5019Z" fill="black"/>
<path d="M113.851 89.5019H111.416V91.9368H113.851V89.5019Z" fill="black"/>
<path d="M121.156 89.5019L118.721 89.5019L118.721 91.9368H121.156V89.5019Z" fill="black"/>
<path d="M9.14925 91.9368H6.71432V94.3717H9.14925V91.9368Z" fill="black"/>
<path d="M14.0191 91.9368H11.5842V94.3717H14.0191V91.9368Z" fill="black"/>
<path d="M16.454 91.9368H14.0191V94.3717H16.454V91.9368Z" fill="black"/>
<path d="M23.7588 91.9368H21.3239V94.3717H23.7588V91.9368Z" fill="black"/>
<path d="M26.1937 91.9368H23.7588V94.3717H26.1937V91.9368Z" fill="black"/>
<path d="M28.6286 91.9368H26.1937V94.3717H28.6286V91.9368Z" fill="black"/>
<path d="M38.3683 91.9368H35.9334V94.3717H38.3683V91.9368Z" fill="black"/>
<path d="M40.8032 91.9368H38.3683V94.3717H40.8032V91.9368Z" fill="black"/>
<path d="M45.6731 91.9368H43.2381V94.3717H45.6731V91.9368Z" fill="black"/>
<path d="M48.108 91.9368H45.6731V94.3717H48.108V91.9368Z" fill="black"/>
<path d="M70.0223 91.9368H67.5874V94.3717H70.0223L70.0223 91.9368Z" fill="black"/>
<path d="M72.4572 91.9368H70.0223L70.0223 94.3717H72.4572V91.9368Z" fill="black"/>
<path d="M74.8921 91.9368H72.4572V94.3717H74.8921V91.9368Z" fill="black"/>
<path d="M77.327 91.9368H74.8921V94.3717H77.327V91.9368Z" fill="black"/>
<path d="M79.762 91.9368H77.327V94.3717H79.762V91.9368Z" fill="black"/>
<path d="M82.1969 91.9368H79.762V94.3717H82.1969V91.9368Z" fill="black"/>
<path d="M84.6318 91.9368H82.1969V94.3717H84.6318V91.9368Z" fill="black"/>
<path d="M96.8064 91.9368H94.3715L94.3715 94.3717H96.8064V91.9368Z" fill="black"/>
<path d="M101.676 91.9368H99.2413V94.3717H101.676V91.9368Z" fill="black"/>
<path d="M113.851 91.9368H111.416V94.3717H113.851V91.9368Z" fill="black"/>
<path d="M116.286 91.9368H113.851V94.3717H116.286V91.9368Z" fill="black"/>
<path d="M118.721 91.9368H116.286V94.3717H118.721L118.721 91.9368Z" fill="black"/>
<path d="M121.156 91.9368H118.721L118.721 94.3717H121.156V91.9368Z" fill="black"/>
<path d="M6.71432 94.3717L4.2794 94.3717V96.8067H6.71432V94.3717Z" fill="black"/>
<path d="M16.454 94.3717H14.0191V96.8067H16.454V94.3717Z" fill="black"/>
<path d="M18.8889 94.3717L16.454 94.3717V96.8067H18.8889V94.3717Z" fill="black"/>
<path d="M21.3239 94.3717L18.8889 94.3717V96.8067H21.3239V94.3717Z" fill="black"/>
<path d="M26.1937 94.3717H23.7588V96.8067H26.1937V94.3717Z" fill="black"/>
<path d="M31.0635 94.3717L28.6286 94.3717V96.8067H31.0635V94.3717Z" fill="black"/>
<path d="M33.4985 94.3717H31.0635V96.8067H33.4985V94.3717Z" fill="black"/>
<path d="M35.9334 94.3717L33.4985 94.3717V96.8067H35.9334V94.3717Z" fill="black"/>
<path d="M38.3683 94.3717H35.9334V96.8067H38.3683V94.3717Z" fill="black"/>
<path d="M45.6731 94.3717H43.2381V96.8067H45.6731V94.3717Z" fill="black"/>
<path d="M48.108 94.3717H45.6731V96.8067H48.108V94.3717Z" fill="black"/>
<path d="M52.9778 94.3717H50.5429V96.8067H52.9778V94.3717Z" fill="black"/>
<path d="M55.4128 94.3717H52.9778V96.8067H55.4128V94.3717Z" fill="black"/>
<path d="M65.1524 94.3717H62.7175V96.8067H65.1524V94.3717Z" fill="black"/>
<path d="M67.5874 94.3717L65.1524 94.3717V96.8067H67.5874V94.3717Z" fill="black"/>
<path d="M79.762 94.3717H77.327L77.327 96.8067H79.762V94.3717Z" fill="black"/>
<path d="M82.1969 94.3717H79.762V96.8067H82.1969V94.3717Z" fill="black"/>
<path d="M84.6318 94.3717H82.1969V96.8067H84.6318V94.3717Z" fill="black"/>
<path d="M94.3715 94.3717L91.9366 94.3717V96.8067H94.3715L94.3715 94.3717Z" fill="black"/>
<path d="M96.8064 94.3717H94.3715L94.3715 96.8067H96.8064V94.3717Z" fill="black"/>
<path d="M99.2413 94.3717H96.8064V96.8067H99.2413L99.2413 94.3717Z" fill="black"/>
<path d="M101.676 94.3717H99.2413L99.2413 96.8067H101.676V94.3717Z" fill="black"/>
<path d="M106.546 94.3717H104.111V96.8067H106.546V94.3717Z" fill="black"/>
<path d="M111.416 94.3717L108.981 94.3717V96.8067H111.416V94.3717Z" fill="black"/>
<path d="M113.851 94.3717H111.416V96.8067H113.851V94.3717Z" fill="black"/>
<path d="M121.156 94.3717H118.721L118.721 96.8067H121.156V94.3717Z" fill="black"/>
<path d="M6.71432 96.8067H4.2794V99.2416H6.71432V96.8067Z" fill="black"/>
<path d="M9.14925 96.8066L6.71432 96.8067V99.2416H9.14925V96.8066Z" fill="black"/>
<path d="M11.5842 96.8066H9.14925V99.2416H11.5842V96.8066Z" fill="black"/>
<path d="M26.1937 96.8067H23.7588V99.2416H26.1937V96.8067Z" fill="black"/>
<path d="M31.0635 96.8067H28.6286V99.2416H31.0635V96.8067Z" fill="black"/>
<path d="M33.4985 96.8067H31.0635V99.2416H33.4985V96.8067Z" fill="black"/>
<path d="M38.3683 96.8067H35.9334V99.2416H38.3683V96.8067Z" fill="black"/>
<path d="M52.9778 96.8067H50.5429V99.2416H52.9778V96.8067Z" fill="black"/>
<path d="M55.4128 96.8067H52.9778V99.2416H55.4128V96.8067Z" fill="black"/>
<path d="M57.8477 96.8066L55.4128 96.8067V99.2416H57.8477V96.8066Z" fill="black"/>
<path d="M67.5874 96.8067H65.1524V99.2416H67.5874V96.8067Z" fill="black"/>
<path d="M70.0223 96.8066L67.5874 96.8067V99.2416H70.0223V96.8066Z" fill="black"/>
<path d="M72.4572 96.8066H70.0223V99.2416H72.4572V96.8066Z" fill="black"/>
<path d="M74.8921 96.8066H72.4572V99.2416H74.8921V96.8066Z" fill="black"/>
<path d="M79.762 96.8067H77.327V99.2416H79.762V96.8067Z" fill="black"/>
<path d="M82.1969 96.8067H79.762V99.2416H82.1969V96.8067Z" fill="black"/>
<path d="M89.5016 96.8066H87.0667V99.2416H89.5016V96.8066Z" fill="black"/>
<path d="M91.9366 96.8067L89.5016 96.8066V99.2416H91.9366V96.8067Z" fill="black"/>
<path d="M99.2413 96.8067H96.8064L96.8064 99.2416H99.2413V96.8067Z" fill="black"/>
<path d="M101.676 96.8067H99.2413V99.2416H101.676V96.8067Z" fill="black"/>
<path d="M104.111 96.8067H101.676V99.2416H104.111L104.111 96.8067Z" fill="black"/>
<path d="M111.416 96.8067H108.981V99.2416H111.416V96.8067Z" fill="black"/>
<path d="M4.2794 99.2416L1.84448 99.2416V101.677H4.2794V99.2416Z" fill="black"/>
<path d="M6.71432 99.2416H4.2794V101.677H6.71432V99.2416Z" fill="black"/>
<path d="M9.14925 99.2416H6.71432V101.677H9.14925V99.2416Z" fill="black"/>
<path d="M18.8889 99.2416H16.454V101.677H18.8889V99.2416Z" fill="black"/>
<path d="M26.1937 99.2416H23.7588V101.677H26.1937V99.2416Z" fill="black"/>
<path d="M28.6286 99.2416H26.1937V101.677H28.6286V99.2416Z" fill="black"/>
<path d="M45.6731 99.2416H43.2381V101.677H45.6731V99.2416Z" fill="black"/>
<path d="M48.108 99.2416H45.6731V101.677H48.108V99.2416Z" fill="black"/>
<path d="M55.4128 99.2416H52.9778V101.677H55.4128V99.2416Z" fill="black"/>
<path d="M57.8477 99.2416H55.4128V101.677H57.8477V99.2416Z" fill="black"/>
<path d="M60.2826 99.2416L57.8477 99.2416V101.677H60.2826V99.2416Z" fill="black"/>
<path d="M62.7175 99.2416H60.2826V101.677H62.7175V99.2416Z" fill="black"/>
<path d="M65.1524 99.2416L62.7175 99.2416V101.677H65.1524V99.2416Z" fill="black"/>
<path d="M67.5874 99.2416H65.1524V101.677H67.5874V99.2416Z" fill="black"/>
<path d="M79.762 99.2416H77.327V101.677H79.762V99.2416Z" fill="black"/>
<path d="M82.1969 99.2416H79.762V101.677H82.1969V99.2416Z" fill="black"/>
<path d="M89.5016 99.2416H87.0667V101.677H89.5016V99.2416Z" fill="black"/>
<path d="M94.3715 99.2416L91.9366 99.2416V101.677H94.3715V99.2416Z" fill="black"/>
<path d="M99.2413 99.2416H96.8064V101.677H99.2413V99.2416Z" fill="black"/>
<path d="M101.676 99.2416H99.2413V101.677H101.676V99.2416Z" fill="black"/>
<path d="M104.111 99.2416H101.676V101.677H104.111V99.2416Z" fill="black"/>
<path d="M106.546 99.2416L104.111 99.2416V101.677H106.546V99.2416Z" fill="black"/>
<path d="M108.981 99.2416L106.546 99.2416V101.677H108.981L108.981 99.2416Z" fill="black"/>
<path d="M111.416 99.2416H108.981L108.981 101.677H111.416V99.2416Z" fill="black"/>
<path d="M113.851 99.2416L111.416 99.2416V101.677H113.851V99.2416Z" fill="black"/>
<path d="M116.286 99.2416H113.851V101.677H116.286V99.2416Z" fill="black"/>
<path d="M23.7588 101.677H21.3239V104.111H23.7588V101.677Z" fill="black"/>
<path d="M26.1937 101.677H23.7588V104.111H26.1937V101.677Z" fill="black"/>
<path d="M28.6286 101.677H26.1937V104.111H28.6286V101.677Z" fill="black"/>
<path d="M35.9334 101.677H33.4985V104.111H35.9334V101.677Z" fill="black"/>
<path d="M45.6731 101.677H43.2381V104.111H45.6731V101.677Z" fill="black"/>
<path d="M55.4128 101.677H52.9778V104.111H55.4128V101.677Z" fill="black"/>
<path d="M57.8477 101.677H55.4128V104.111H57.8477V101.677Z" fill="black"/>
<path d="M67.5874 101.677H65.1524V104.111H67.5874V101.677Z" fill="black"/>
<path d="M70.0223 101.677H67.5874V104.111H70.0223V101.677Z" fill="black"/>
<path d="M84.6318 101.677H82.1969V104.111H84.6318V101.677Z" fill="black"/>
<path d="M89.5016 101.677H87.0667V104.111H89.5016V101.677Z" fill="black"/>
<path d="M91.9366 101.677H89.5016V104.111H91.9366V101.677Z" fill="black"/>
<path d="M94.3715 101.677H91.9366V104.111H94.3715V101.677Z" fill="black"/>
<path d="M96.8064 101.677H94.3715V104.111H96.8064L96.8064 101.677Z" fill="black"/>
<path d="M101.676 101.677H99.2413L99.2413 104.111H101.676V101.677Z" fill="black"/>
<path d="M111.416 101.677H108.981L108.981 104.111H111.416V101.677Z" fill="black"/>
<path d="M113.851 101.677H111.416V104.111H113.851V101.677Z" fill="black"/>
<path d="M116.286 101.677H113.851V104.111H116.286V101.677Z" fill="black"/>
<path d="M4.2794 104.111H1.84448V106.546H4.2794V104.111Z" fill="black"/>
<path d="M6.71432 104.111H4.2794V106.546H6.71432V104.111Z" fill="black"/>
<path d="M9.14925 104.111H6.71432V106.546H9.14925V104.111Z" fill="black"/>
<path d="M11.5842 104.111H9.14925V106.546H11.5842V104.111Z" fill="black"/>
<path d="M14.0191 104.111H11.5842V106.546H14.0191V104.111Z" fill="black"/>
<path d="M16.454 104.111H14.0191V106.546H16.454V104.111Z" fill="black"/>
<path d="M18.8889 104.111H16.454V106.546H18.8889V104.111Z" fill="black"/>
<path d="M23.7588 104.111H21.3239V106.546H23.7588V104.111Z" fill="black"/>
<path d="M26.1937 104.111H23.7588V106.546H26.1937V104.111Z" fill="black"/>
<path d="M31.0635 104.111L28.6286 104.111V106.546H31.0635V104.111Z" fill="black"/>
<path d="M33.4985 104.111L31.0635 104.111V106.546H33.4985V104.111Z" fill="black"/>
<path d="M35.9334 104.111H33.4985V106.546H35.9334V104.111Z" fill="black"/>
<path d="M40.8032 104.111H38.3683V106.546H40.8032V104.111Z" fill="black"/>
<path d="M43.2381 104.111L40.8032 104.111V106.546H43.2381V104.111Z" fill="black"/>
<path d="M45.6731 104.111H43.2381V106.546H45.6731V104.111Z" fill="black"/>
<path d="M48.108 104.111L45.6731 104.111V106.546H48.108V104.111Z" fill="black"/>
<path d="M50.5429 104.111H48.108V106.546H50.5429V104.111Z" fill="black"/>
<path d="M52.9778 104.111L50.5429 104.111V106.546H52.9778V104.111Z" fill="black"/>
<path d="M55.4128 104.111H52.9778V106.546H55.4128V104.111Z" fill="black"/>
<path d="M57.8477 104.111H55.4128V106.546H57.8477V104.111Z" fill="black"/>
<path d="M62.7175 104.111H60.2826V106.546H62.7175V104.111Z" fill="black"/>
<path d="M67.5874 104.111H65.1524V106.546H67.5874V104.111Z" fill="black"/>
<path d="M77.327 104.111H74.8921V106.546H77.327V104.111Z" fill="black"/>
<path d="M84.6318 104.111H82.1969V106.546H84.6318V104.111Z" fill="black"/>
<path d="M87.0667 104.111H84.6318V106.546H87.0667L87.0667 104.111Z" fill="black"/>
<path d="M91.9366 104.111H89.5016L89.5016 106.546H91.9366V104.111Z" fill="black"/>
<path d="M94.3715 104.111H91.9366V106.546H94.3715V104.111Z" fill="black"/>
<path d="M96.8064 104.111H94.3715V106.546H96.8064V104.111Z" fill="black"/>
<path d="M101.676 104.111H99.2413V106.546H101.676V104.111Z" fill="black"/>
<path d="M106.546 104.111H104.111V106.546H106.546V104.111Z" fill="black"/>
<path d="M111.416 104.111H108.981V106.546H111.416V104.111Z" fill="black"/>
<path d="M118.721 104.111L116.286 104.111L116.286 106.546H118.721V104.111Z" fill="black"/>
<path d="M4.2794 106.546H1.84448V108.981H4.2794V106.546Z" fill="black"/>
<path d="M18.8889 106.546H16.454V108.981H18.8889V106.546Z" fill="black"/>
<path d="M28.6286 106.546H26.1937V108.981H28.6286V106.546Z" fill="black"/>
<path d="M38.3683 106.546H35.9334V108.981H38.3683V106.546Z" fill="black"/>
<path d="M43.2381 106.546H40.8032V108.981H43.2381V106.546Z" fill="black"/>
<path d="M45.6731 106.546H43.2381V108.981H45.6731V106.546Z" fill="black"/>
<path d="M48.108 106.546H45.6731V108.981H48.108V106.546Z" fill="black"/>
<path d="M57.8477 106.546H55.4128V108.981H57.8477V106.546Z" fill="black"/>
<path d="M67.5874 106.546H65.1524V108.981H67.5874V106.546Z" fill="black"/>
<path d="M70.0223 106.546L67.5874 106.546V108.981H70.0223V106.546Z" fill="black"/>
<path d="M74.8921 106.546L72.4572 106.546V108.981H74.8921L74.8921 106.546Z" fill="black"/>
<path d="M77.327 106.546H74.8921L74.8921 108.981H77.327V106.546Z" fill="black"/>
<path d="M82.1969 106.546L79.762 106.546V108.981H82.1969V106.546Z" fill="black"/>
<path d="M84.6318 106.546H82.1969V108.981H84.6318V106.546Z" fill="black"/>
<path d="M91.9366 106.546H89.5016V108.981H91.9366V106.546Z" fill="black"/>
<path d="M94.3715 106.546H91.9366V108.981H94.3715V106.546Z" fill="black"/>
<path d="M99.2413 106.546H96.8064L96.8064 108.981H99.2413L99.2413 106.546Z" fill="black"/>
<path d="M101.676 106.546H99.2413L99.2413 108.981H101.676V106.546Z" fill="black"/>
<path d="M111.416 106.546H108.981V108.981H111.416V106.546Z" fill="black"/>
<path d="M116.286 106.546L113.851 106.546V108.981H116.286L116.286 106.546Z" fill="black"/>
<path d="M4.2794 108.981H1.84448V111.416H4.2794V108.981Z" fill="black"/>
<path d="M9.14925 108.981H6.71432V111.416H9.14925V108.981Z" fill="black"/>
<path d="M11.5842 108.981H9.14925V111.416H11.5842V108.981Z" fill="black"/>
<path d="M14.0191 108.981H11.5842V111.416H14.0191V108.981Z" fill="black"/>
<path d="M18.8889 108.981H16.454V111.416H18.8889V108.981Z" fill="black"/>
<path d="M23.7588 108.981H21.3239V111.416H23.7588V108.981Z" fill="black"/>
<path d="M31.0635 108.981L28.6286 108.981V111.416H31.0635V108.981Z" fill="black"/>
<path d="M33.4985 108.981H31.0635V111.416H33.4985V108.981Z" fill="black"/>
<path d="M35.9334 108.981L33.4985 108.981V111.416H35.9334V108.981Z" fill="black"/>
<path d="M43.2381 108.981H40.8032V111.416H43.2381V108.981Z" fill="black"/>
<path d="M45.6731 108.981H43.2381V111.416H45.6731V108.981Z" fill="black"/>
<path d="M48.108 108.981H45.6731V111.416H48.108V108.981Z" fill="black"/>
<path d="M55.4128 108.981L52.9778 108.981V111.416H55.4128V108.981Z" fill="black"/>
<path d="M57.8477 108.981H55.4128V111.416H57.8477V108.981Z" fill="black"/>
<path d="M60.2826 108.981L57.8477 108.981V111.416H60.2826V108.981Z" fill="black"/>
<path d="M62.7175 108.981H60.2826V111.416H62.7175V108.981Z" fill="black"/>
<path d="M65.1524 108.981L62.7175 108.981V111.416H65.1524V108.981Z" fill="black"/>
<path d="M67.5874 108.981H65.1524V111.416H67.5874V108.981Z" fill="black"/>
<path d="M70.0223 108.981H67.5874V111.416H70.0223V108.981Z" fill="black"/>
<path d="M72.4572 108.981H70.0223V111.416H72.4572V108.981Z" fill="black"/>
<path d="M74.8921 108.981H72.4572V111.416H74.8921V108.981Z" fill="black"/>
<path d="M82.1969 108.981H79.762V111.416H82.1969V108.981Z" fill="black"/>
<path d="M84.6318 108.981H82.1969V111.416H84.6318V108.981Z" fill="black"/>
<path d="M87.0667 108.981L84.6318 108.981V111.416H87.0667V108.981Z" fill="black"/>
<path d="M89.5016 108.981L87.0667 108.981V111.416H89.5016L89.5016 108.981Z" fill="black"/>
<path d="M94.3715 108.981H91.9366V111.416H94.3715V108.981Z" fill="black"/>
<path d="M99.2413 108.981H96.8064V111.416H99.2413V108.981Z" fill="black"/>
<path d="M101.676 108.981H99.2413V111.416H101.676V108.981Z" fill="black"/>
<path d="M104.111 108.981L101.676 108.981V111.416H104.111V108.981Z" fill="black"/>
<path d="M106.546 108.981H104.111V111.416H106.546V108.981Z" fill="black"/>
<path d="M108.981 108.981L106.546 108.981V111.416H108.981L108.981 108.981Z" fill="black"/>
<path d="M111.416 108.981H108.981L108.981 111.416H111.416V108.981Z" fill="black"/>
<path d="M116.286 108.981H113.851V111.416H116.286V108.981Z" fill="black"/>
<path d="M121.156 108.981H118.721V111.416H121.156V108.981Z" fill="black"/>
<path d="M4.2794 111.416H1.84448V113.851H4.2794V111.416Z" fill="black"/>
<path d="M9.14925 111.416H6.71432V113.851H9.14925V111.416Z" fill="black"/>
<path d="M11.5842 111.416H9.14925V113.851H11.5842V111.416Z" fill="black"/>
<path d="M14.0191 111.416H11.5842V113.851H14.0191V111.416Z" fill="black"/>
<path d="M18.8889 111.416H16.454V113.851H18.8889V111.416Z" fill="black"/>
<path d="M23.7588 111.416H21.3239V113.851H23.7588V111.416Z" fill="black"/>
<path d="M26.1937 111.416H23.7588V113.851H26.1937V111.416Z" fill="black"/>
<path d="M31.0635 111.416H28.6286V113.851H31.0635V111.416Z" fill="black"/>
<path d="M35.9334 111.416H33.4985V113.851H35.9334V111.416Z" fill="black"/>
<path d="M38.3683 111.416H35.9334V113.851H38.3683V111.416Z" fill="black"/>
<path d="M40.8032 111.416H38.3683V113.851H40.8032V111.416Z" fill="black"/>
<path d="M43.2381 111.416H40.8032V113.851H43.2381V111.416Z" fill="black"/>
<path d="M48.108 111.416H45.6731V113.851H48.108V111.416Z" fill="black"/>
<path d="M50.5429 111.416H48.108V113.851H50.5429V111.416Z" fill="black"/>
<path d="M55.4128 111.416H52.9778V113.851H55.4128V111.416Z" fill="black"/>
<path d="M62.7175 111.416H60.2826V113.851H62.7175V111.416Z" fill="black"/>
<path d="M65.1524 111.416H62.7175V113.851H65.1524V111.416Z" fill="black"/>
<path d="M70.0223 111.416H67.5874V113.851H70.0223V111.416Z" fill="black"/>
<path d="M74.8921 111.416H72.4572V113.851H74.8921V111.416Z" fill="black"/>
<path d="M77.327 111.416H74.8921V113.851H77.327V111.416Z" fill="black"/>
<path d="M79.762 111.416H77.327V113.851H79.762L79.762 111.416Z" fill="black"/>
<path d="M82.1969 111.416H79.762L79.762 113.851H82.1969V111.416Z" fill="black"/>
<path d="M84.6318 111.416H82.1969V113.851H84.6318V111.416Z" fill="black"/>
<path d="M87.0667 111.416H84.6318V113.851H87.0667V111.416Z" fill="black"/>
<path d="M89.5016 111.416H87.0667V113.851H89.5016V111.416Z" fill="black"/>
<path d="M91.9366 111.416H89.5016V113.851H91.9366V111.416Z" fill="black"/>
<path d="M104.111 111.416H101.676V113.851H104.111V111.416Z" fill="black"/>
<path d="M106.546 111.416H104.111V113.851H106.546V111.416Z" fill="black"/>
<path d="M108.981 111.416H106.546V113.851H108.981V111.416Z" fill="black"/>
<path d="M113.851 111.416H111.416V113.851H113.851L113.851 111.416Z" fill="black"/>
<path d="M116.286 111.416H113.851L113.851 113.851H116.286V111.416Z" fill="black"/>
<path d="M118.721 111.416H116.286V113.851H118.721L118.721 111.416Z" fill="black"/>
<path d="M121.156 111.416H118.721L118.721 113.851H121.156V111.416Z" fill="black"/>
<path d="M4.2794 113.851H1.84448V116.286H4.2794V113.851Z" fill="black"/>
<path d="M9.14925 113.851H6.71432V116.286H9.14925V113.851Z" fill="black"/>
<path d="M11.5842 113.851H9.14925V116.286H11.5842V113.851Z" fill="black"/>
<path d="M14.0191 113.851H11.5842V116.286H14.0191V113.851Z" fill="black"/>
<path d="M18.8889 113.851H16.454V116.286H18.8889V113.851Z" fill="black"/>
<path d="M26.1937 113.851H23.7588V116.286H26.1937V113.851Z" fill="black"/>
<path d="M31.0635 113.851H28.6286V116.286H31.0635V113.851Z" fill="black"/>
<path d="M35.9334 113.851H33.4985V116.286H35.9334V113.851Z" fill="black"/>
<path d="M48.108 113.851H45.6731V116.286H48.108V113.851Z" fill="black"/>
<path d="M55.4128 113.851H52.9778V116.286H55.4128V113.851Z" fill="black"/>
<path d="M60.2826 113.851L57.8477 113.851V116.286H60.2826V113.851Z" fill="black"/>
<path d="M67.5874 113.851H65.1524V116.286H67.5874V113.851Z" fill="black"/>
<path d="M70.0223 113.851H67.5874V116.286H70.0223V113.851Z" fill="black"/>
<path d="M72.4572 113.851H70.0223V116.286H72.4572V113.851Z" fill="black"/>
<path d="M77.327 113.851H74.8921L74.8921 116.286H77.327V113.851Z" fill="black"/>
<path d="M84.6318 113.851H82.1969V116.286H84.6318V113.851Z" fill="black"/>
<path d="M89.5016 113.851H87.0667L87.0667 116.286H89.5016V113.851Z" fill="black"/>
<path d="M96.8064 113.851H94.3715V116.286H96.8064V113.851Z" fill="black"/>
<path d="M99.2413 113.851H96.8064V116.286H99.2413V113.851Z" fill="black"/>
<path d="M104.111 113.851H101.676V116.286H104.111V113.851Z" fill="black"/>
<path d="M106.546 113.851H104.111V116.286H106.546V113.851Z" fill="black"/>
<path d="M116.286 113.851H113.851L113.851 116.286H116.286V113.851Z" fill="black"/>
<path d="M118.721 113.851H116.286V116.286H118.721V113.851Z" fill="black"/>
<path d="M4.2794 116.286H1.84448V118.721H4.2794V116.286Z" fill="black"/>
<path d="M18.8889 116.286H16.454V118.721H18.8889V116.286Z" fill="black"/>
<path d="M23.7588 116.286L21.3239 116.286V118.721H23.7588V116.286Z" fill="black"/>
<path d="M38.3683 116.286L35.9334 116.286V118.721H38.3683V116.286Z" fill="black"/>
<path d="M45.6731 116.286L43.2381 116.286V118.721H45.6731V116.286Z" fill="black"/>
<path d="M52.9778 116.286L50.5429 116.286V118.721H52.9778V116.286Z" fill="black"/>
<path d="M60.2826 116.286H57.8477V118.721H60.2826V116.286Z" fill="black"/>
<path d="M65.1524 116.286L62.7175 116.286V118.721H65.1524V116.286Z" fill="black"/>
<path d="M70.0223 116.286H67.5874V118.721H70.0223V116.286Z" fill="black"/>
<path d="M72.4572 116.286H70.0223V118.721H72.4572V116.286Z" fill="black"/>
<path d="M79.762 116.286L77.327 116.286L77.327 118.721H79.762V116.286Z" fill="black"/>
<path d="M96.8064 116.286H94.3715V118.721H96.8064V116.286Z" fill="black"/>
<path d="M99.2413 116.286H96.8064V118.721H99.2413V116.286Z" fill="black"/>
<path d="M104.111 116.286H101.676V118.721H104.111V116.286Z" fill="black"/>
<path d="M108.981 116.286L106.546 116.286L106.546 118.721H108.981V116.286Z" fill="black"/>
<path d="M111.416 116.286H108.981V118.721H111.416V116.286Z" fill="black"/>
<path d="M113.851 116.286L111.416 116.286V118.721H113.851L113.851 116.286Z" fill="black"/>
<path d="M118.721 116.286H116.286L116.286 118.721H118.721V116.286Z" fill="black"/>
<path d="M4.2794 118.721H1.84448V121.156H4.2794V118.721Z" fill="black"/>
<path d="M6.71432 118.721L4.2794 118.721V121.156H6.71432V118.721Z" fill="black"/>
<path d="M9.14925 118.721H6.71432V121.156H9.14925V118.721Z" fill="black"/>
<path d="M11.5842 118.721H9.14925V121.156H11.5842V118.721Z" fill="black"/>
<path d="M14.0191 118.721H11.5842V121.156H14.0191V118.721Z" fill="black"/>
<path d="M16.454 118.721L14.0191 118.721V121.156H16.454V118.721Z" fill="black"/>
<path d="M18.8889 118.721H16.454V121.156H18.8889V118.721Z" fill="black"/>
<path d="M28.6286 118.721H26.1937V121.156H28.6286V118.721Z" fill="black"/>
<path d="M33.4985 118.721H31.0635V121.156H33.4985V118.721Z" fill="black"/>
<path d="M38.3683 118.721H35.9334V121.156H38.3683V118.721Z" fill="black"/>
<path d="M40.8032 118.721L38.3683 118.721V121.156H40.8032V118.721Z" fill="black"/>
<path d="M43.2381 118.721L40.8032 118.721V121.156H43.2381V118.721Z" fill="black"/>
<path d="M48.108 118.721L45.6731 118.721V121.156H48.108V118.721Z" fill="black"/>
<path d="M50.5429 118.721L48.108 118.721V121.156H50.5429V118.721Z" fill="black"/>
<path d="M57.8477 118.721L55.4128 118.721V121.156H57.8477V118.721Z" fill="black"/>
<path d="M60.2826 118.721H57.8477V121.156H60.2826V118.721Z" fill="black"/>
<path d="M62.7175 118.721H60.2826V121.156H62.7175V118.721Z" fill="black"/>
<path d="M65.1524 118.721H62.7175V121.156H65.1524V118.721Z" fill="black"/>
<path d="M67.5874 118.721H65.1524V121.156H67.5874V118.721Z" fill="black"/>
<path d="M70.0223 118.721H67.5874V121.156H70.0223V118.721Z" fill="black"/>
<path d="M72.4572 118.721H70.0223V121.156H72.4572V118.721Z" fill="black"/>
<path d="M77.327 118.721L74.8921 118.721V121.156H77.327L77.327 118.721Z" fill="black"/>
<path d="M79.762 118.721H77.327L77.327 121.156H79.762V118.721Z" fill="black"/>
<path d="M82.1969 118.721L79.762 118.721V121.156H82.1969V118.721Z" fill="black"/>
<path d="M87.0667 118.721H84.6318V121.156H87.0667V118.721Z" fill="black"/>
<path d="M96.8064 118.721H94.3715V121.156H96.8064V118.721Z" fill="black"/>
<path d="M106.546 118.721H104.111L104.111 121.156H106.546L106.546 118.721Z" fill="black"/>
<path d="M111.416 118.721H108.981L108.981 121.156H111.416V118.721Z" fill="black"/>
<path d="M113.851 118.721H111.416V121.156H113.851V118.721Z" fill="black"/>
<path d="M116.286 118.721H113.851V121.156H116.286L116.286 118.721Z" fill="black"/>
<path d="M118.721 118.721H116.286L116.286 121.156H118.721V118.721Z" fill="black"/>
<path d="M121.156 118.721L118.721 118.721V121.156H121.156V118.721Z" fill="black"/>
</g>
<defs>
<clipPath id="clip0_234_1199">
<rect width="123" height="123" fill="white"/>
</clipPath>
</defs>
</svg>
